<?xml version="1.0" encoding="UTF-8" standalone="no"?>
<!-- Created with Inkscape (http://www.inkscape.org/) -->

<svg
   version="1.1"
   id="svg824"
   xml:space="preserve"
   width="338.39999"
   height="526.83881"
   viewBox="0 0 338.39998 526.83881"
   sodipodi:docname="landscape.svg"
   inkscape:version="1.1 (c68e22c387, 2021-05-23)"
   xmlns:inkscape="http://www.inkscape.org/namespaces/inkscape"
   xmlns:sodipodi="http://sodipodi.sourceforge.net/DTD/sodipodi-0.dtd"
   xmlns="http://www.w3.org/2000/svg"
   xmlns:svg="http://www.w3.org/2000/svg"><defs
     id="defs828"><clipPath
       clipPathUnits="userSpaceOnUse"
       id="clipPath842"><path
         d="M 3135.69,80 H 185.691 v 4680 h 3269.999 -320 V 80"
         id="path840" /></clipPath><clipPath
       clipPathUnits="userSpaceOnUse"
       id="clipPath856"><path
         d="m 552.258,524.711 h 2536.88 v 3950.58 H 552.258 Z"
         id="path854" /></clipPath><clipPath
       clipPathUnits="userSpaceOnUse"
       id="clipPath866"><path
         d="m 552.258,524.711 h 2536.88 v 3950.58 H 552.258 Z"
         id="path864" /></clipPath><clipPath
       clipPathUnits="userSpaceOnUse"
       id="clipPath872"><path
         d="m 274.781,2814.4 c 228.5,101.27 347.367,-270.83 558.391,-289.07 145.566,-12.59 259.768,41.21 393.968,98.3 233.14,99.18 367.57,-17.18 573.53,-110.18 264.73,-119.53 476.83,12.51 737.67,30.25 4.91,-70.75 11,-181.19 -19.1,-245.14 -41.43,-88.02 -143.75,-105.44 -230.71,-142.21 -192.01,-81.19 -384.76,-161.8 -573.62,-250.08 -322.1,-150.57 -599.6,-298.62 -960.484,-243.36 -83.301,12.75 -754.26975,-2.57 -619.309,193.78"
         id="path870" /></clipPath><linearGradient
       x1="0"
       y1="0"
       x2="1"
       y2="0"
       gradientUnits="userSpaceOnUse"
       gradientTransform="matrix(-79.8098,-728.265,-728.265,79.8098,1399.82,2748.79)"
       spreadMethod="pad"
       id="linearGradient878"><stop
         style="stop-opacity:1;stop-color:#44928d"
         offset="0"
         id="stop874" /><stop
         style="stop-opacity:1;stop-color:#3b60b6"
         offset="1"
         id="stop876" /></linearGradient><clipPath
       clipPathUnits="userSpaceOnUse"
       id="clipPath888"><path
         d="m 552.258,524.711 h 2536.88 v 3950.58 H 552.258 Z"
         id="path886" /></clipPath><clipPath
       clipPathUnits="userSpaceOnUse"
       id="clipPath894"><path
         d="m 254.832,1993.03 c 233.418,34.99 382.836,193.07 594.598,263.02 133.957,44.26 255.14,-45.02 387.14,-7.59 118.13,33.5 203.08,150.07 325.47,183.52 114.34,31.26 202.03,-2.25 309.47,-28.1 331.22,-79.71 488.97,130.93 711.42,321.38 82.1,70.3 172.02,123.89 276.07,156.02 209.33,64.65 306.53,-31.36 454.54,-184.14 90.28,-93.19 166.99,-196.1 235.72,-304.33 140.86,-221.81 83.02,-479.51 102.41,-736.78 18.66,-247.47 128.53,-623.58 39.7,-868.159 C 3609.93,563.621 3217.65,559.141 3016.64,491.77 2278.23,244.309 1333.3,-297.27 547.469,11.082"
         id="path892" /></clipPath><linearGradient
       x1="0"
       y1="0"
       x2="1"
       y2="0"
       gradientUnits="userSpaceOnUse"
       gradientTransform="matrix(-159.62,-1223.75,-1223.75,159.62,2164.01,2807.56)"
       spreadMethod="pad"
       id="linearGradient900"><stop
         style="stop-opacity:1;stop-color:#68cbb4"
         offset="0"
         id="stop896" /><stop
         style="stop-opacity:1;stop-color:#4882cb"
         offset="1"
         id="stop898" /></linearGradient><clipPath
       clipPathUnits="userSpaceOnUse"
       id="clipPath910"><path
         d="m 552.258,524.711 h 2536.88 v 3950.58 H 552.258 Z"
         id="path908" /></clipPath><clipPath
       clipPathUnits="userSpaceOnUse"
       id="clipPath916"><path
         d="m 347.941,1766.9 c 165.512,8.58 309.282,150.07 479.52,147.01 101.875,-1.84 164.578,-52.26 249.069,-97.45 224.08,-119.84 430.01,-63.95 668.09,-12.61 163.99,35.36 324.51,65.6 478.12,-0.73 85.76,-37.05 150.04,-92.82 229.87,-142.32 283.35,-175.73 619.54,-76.95 931.62,-39.95 88.13,10.45 119.06,28.27 185.05,-27.79 80.21,-68.14 127.31,-267.5 162.7,-358.08 79.99,-204.75 259.25,-479.589 216.77,-701.5 C 3908.48,323.121 3731.12,215.02 3542.49,162.871 3077.42,34.3008 2574.23,-21.1406 2097.82,-107.262 1267.31,-257.391 265.602,-402.781 -450.156,157.398"
         id="path914" /></clipPath><linearGradient
       x1="0"
       y1="0"
       x2="1"
       y2="0"
       gradientUnits="userSpaceOnUse"
       gradientTransform="matrix(-133.016,-678.384,-678.384,133.016,2040.96,1832.94)"
       spreadMethod="pad"
       id="linearGradient922"><stop
         style="stop-opacity:1;stop-color:#73cfbb"
         offset="0"
         id="stop918" /><stop
         style="stop-opacity:1;stop-color:#5f9bd9"
         offset="1"
         id="stop920" /></linearGradient><clipPath
       clipPathUnits="userSpaceOnUse"
       id="clipPath932"><path
         d="m 552,524 h 2538 v 831 H 552 Z"
         id="path930" /></clipPath><linearGradient
       x1="0"
       y1="0"
       x2="1"
       y2="0"
       gradientUnits="userSpaceOnUse"
       gradientTransform="matrix(-119.715,-957.718,-957.718,119.715,2039.8,1339.27)"
       spreadMethod="pad"
       id="linearGradient938"><stop
         style="stop-opacity:1;stop-color:#b9e8ed"
         offset="0"
         id="stop934" /><stop
         style="stop-opacity:1;stop-color:#7fccf2"
         offset="1"
         id="stop936" /></linearGradient><clipPath
       clipPathUnits="userSpaceOnUse"
       id="clipPath948"><path
         d="m 552.258,524.711 h 2536.88 v 3950.58 H 552.258 Z"
         id="path946" /></clipPath><clipPath
       clipPathUnits="userSpaceOnUse"
       id="clipPath954"><path
         d="M 667.184,423.629 C 917.566,336.68 1226.9,630.801 1387.37,788.32 c 125.64,123.321 223.98,188.91 400.04,193.602 245.07,6.527 493.4,-119.133 728.99,-9.59 106.9,49.708 190.92,150.158 302.31,193.538 171.78,66.9 414.89,-16.46 595.26,-34.34 106.36,-10.54 129.37,-3.14 181.94,-74.63 76.46,-103.951 107.96,-408.72 89.16,-530.498 C 3660.89,369.75 3583.2,354.082 3438.07,312.27 3034.99,196.141 2534.41,54.7891 2117.06,117.699"
         id="path952" /></clipPath><linearGradient
       x1="0"
       y1="0"
       x2="1"
       y2="0"
       gradientUnits="userSpaceOnUse"
       gradientTransform="matrix(-94.5129,-756.103,-756.103,94.5129,2251.78,1079.72)"
       spreadMethod="pad"
       id="linearGradient960"><stop
         style="stop-opacity:1;stop-color:#68cbb4"
         offset="0"
         id="stop956" /><stop
         style="stop-opacity:1;stop-color:#4882cb"
         offset="1"
         id="stop958" /></linearGradient><clipPath
       clipPathUnits="userSpaceOnUse"
       id="clipPath970"><path
         d="m 552.258,524.711 h 2536.88 v 3950.58 H 552.258 Z"
         id="path968" /></clipPath><clipPath
       clipPathUnits="userSpaceOnUse"
       id="clipPath976"><path
         d="m 1123.27,326.09 c 363.14,45.039 532.83,461.5 904.64,427.961 166.53,-15.02 319.97,-96 483.78,-125.27 103.83,-18.562 203.53,-11.582 306.4,-1.949 78.6,7.348 257.57,78.027 321.99,58.078 C 3222.12,659.5 3332.96,425.84 3280,348.172 3212.05,248.52 2930.96,237.02 2833.27,217.172 2420.74,133.352 2014.34,97.4805 1597.01,48.7813"
         id="path974" /></clipPath><linearGradient
       x1="0"
       y1="0"
       x2="1"
       y2="0"
       gradientUnits="userSpaceOnUse"
       gradientTransform="matrix(-103.993,-831.942,-831.942,103.993,2296.82,1066.23)"
       spreadMethod="pad"
       id="linearGradient982"><stop
         style="stop-opacity:1;stop-color:#44928d"
         offset="0"
         id="stop978" /><stop
         style="stop-opacity:1;stop-color:#3b60b6"
         offset="1"
         id="stop980" /></linearGradient><clipPath
       clipPathUnits="userSpaceOnUse"
       id="clipPath992"><path
         d="m 1465.28,3422.95 c 0,-172.63 -139.95,-312.58 -312.59,-312.58 -172.635,0 -312.585,139.95 -312.585,312.58 0,172.65 139.95,312.6 312.585,312.6 172.64,0 312.59,-139.95 312.59,-312.6 z"
         id="path990" /></clipPath><linearGradient
       x1="0"
       y1="0"
       x2="1"
       y2="0"
       gradientUnits="userSpaceOnUse"
       gradientTransform="matrix(266.033,585.272,585.272,-266.033,1054.75,3207.49)"
       spreadMethod="pad"
       id="linearGradient998"><stop
         style="stop-opacity:1;stop-color:#f8a289"
         offset="0"
         id="stop994" /><stop
         style="stop-opacity:1;stop-color:#ecdd9c"
         offset="1"
         id="stop996" /></linearGradient><clipPath
       clipPathUnits="userSpaceOnUse"
       id="clipPath1008"><path
         d="m 6095.69,80 h -2960 320 v 4680 h 2950 -310 V 80"
         id="path1006" /></clipPath><clipPath
       clipPathUnits="userSpaceOnUse"
       id="clipPath1020"><path
         d="m 3135.69,80 h 320 v 4680 h -320 z"
         id="path1018" /></clipPath><clipPath
       clipPathUnits="userSpaceOnUse"
       id="clipPath1034"><path
         d="m 3505.12,524.711 h 2536.89 v 3950.58 H 3505.12 Z"
         id="path1032" /></clipPath><clipPath
       clipPathUnits="userSpaceOnUse"
       id="clipPath1044"><path
         d="m 3505.12,524.711 h 2536.89 v 3950.58 H 3505.12 Z"
         id="path1042" /></clipPath><clipPath
       clipPathUnits="userSpaceOnUse"
       id="clipPath1050"><path
         d="m 3556.96,2475.21 c 254.94,-259.84 826.77,78.16 1037.53,266.59 214.21,191.52 372.58,413.82 571.35,619.31 193.6,200.16 287.18,27.13 428.75,-125.23 64.63,-69.56 120.86,-132.89 207.03,-144.82 58.83,-8.15 79.54,15.21 141.88,-24.55 56.03,-35.73 95.24,-87.38 142.18,-132.39 81.48,-78.13 165.53,-154.79 241.88,-240.69 184.29,-207.33 281.14,-595.73 281.28,-866.57 0.13,-256.43 -104.54,-512.1 -330.96,-651.7 -224.65,-138.52 -564.1,-52.04 -811.72,-41.75 -353.14,14.67 -707.41,26.18 -1059.28,60.09 -234.72,22.62 -522.09,-2.31 -750.15,64.62"
         id="path1048" /></clipPath><linearGradient
       x1="0"
       y1="0"
       x2="1"
       y2="0"
       gradientUnits="userSpaceOnUse"
       gradientTransform="matrix(-369.121,-1606.17,-1606.17,369.121,5377.93,3382.52)"
       spreadMethod="pad"
       id="linearGradient1056"><stop
         style="stop-opacity:1;stop-color:#cb5d96"
         offset="0"
         id="stop1052" /><stop
         style="stop-opacity:1;stop-color:#6d42a4"
         offset="1"
         id="stop1054" /></linearGradient><clipPath
       clipPathUnits="userSpaceOnUse"
       id="clipPath1066"><path
         d="m 3505.12,524.711 h 2536.89 v 3950.58 H 3505.12 Z"
         id="path1064" /></clipPath><clipPath
       clipPathUnits="userSpaceOnUse"
       id="clipPath1072"><path
         d="m 3377.39,2864.29 c 141.25,3.32 234.11,-160.92 319.85,-249.44 97.29,-100.47 203.95,-212.13 338.36,-263 138.57,-52.47 292.78,-25.58 434.37,-57.35 164.56,-36.93 257.34,-140.53 364.45,-260.32 177.74,-198.78 497.71,-219.26 747.99,-171.72 208.66,39.64 381.43,190.55 585.35,238.59 229.52,54.09 356.33,-419.39 447.59,-579.96 109.48,-192.58 52.2,-539.281 -15.75,-739.121 C 6488.88,456.391 6209.15,282.469 5898.16,167.84 5470.15,10.082 5020.24,-80.8906 4565.91,-113.699 c -419.22,-30.27 -718.92,20.0779 -1050.43,270.961 -183.5,138.859 -369.31,272.547 -347.59,532.207"
         id="path1070" /></clipPath><linearGradient
       x1="0"
       y1="0"
       x2="1"
       y2="0"
       gradientUnits="userSpaceOnUse"
       gradientTransform="matrix(-69.8336,-917.813,-917.813,69.8336,5036.07,2434.57)"
       spreadMethod="pad"
       id="linearGradient1078"><stop
         style="stop-opacity:1;stop-color:#d77fa3"
         offset="0"
         id="stop1074" /><stop
         style="stop-opacity:1;stop-color:#875fb6"
         offset="1"
         id="stop1076" /></linearGradient><clipPath
       clipPathUnits="userSpaceOnUse"
       id="clipPath1088"><path
         d="m 3505.12,524.711 h 2536.89 v 3950.58 H 3505.12 Z"
         id="path1086" /></clipPath><clipPath
       clipPathUnits="userSpaceOnUse"
       id="clipPath1094"><path
         d="m 3367.41,1687.09 c 72.11,4.07 139.83,-38.79 207.69,-59.31 204.57,-61.84 410.92,-95.27 623.06,-63.92 167.85,24.8 314.4,91.16 486.03,93.46 116.15,1.57 220.48,-25.33 331.69,-55.48 263.48,-71.47 486.91,-37.25 742.57,61.35 175.42,67.67 480.27,312.98 671.16,264.98 -3.07,-195.72 113.96,-393.8 176.14,-573.28 138.45,-399.62 76.74,-717.152 -337.21,-897.628 -248.3,-108.274 -533.67,-118.301 -799,-77.364 -324.07,50.024 -638.02,1.184 -947.75,-100.058 -263.94,-86.281 -513.87,-156.231 -792.27,-108.871 -239.57,40.742 -468.25,149.703 -671.37,279.07"
         id="path1092" /></clipPath><linearGradient
       x1="0"
       y1="0"
       x2="1"
       y2="0"
       gradientUnits="userSpaceOnUse"
       gradientTransform="matrix(-119.715,-518.764,-518.764,119.715,5083.16,1637.25)"
       spreadMethod="pad"
       id="linearGradient1100"><stop
         style="stop-opacity:1;stop-color:#e09cb6"
         offset="0"
         id="stop1096" /><stop
         style="stop-opacity:1;stop-color:#b48acc"
         offset="1"
         id="stop1098" /></linearGradient><clipPath
       clipPathUnits="userSpaceOnUse"
       id="clipPath1110"><path
         d="m 3505,524 h 2538 v 824 H 3505 Z"
         id="path1108" /></clipPath><linearGradient
       x1="0"
       y1="0"
       x2="1"
       y2="0"
       gradientUnits="userSpaceOnUse"
       gradientTransform="matrix(-169.596,-1127.31,-1127.31,169.596,4955.56,1360.68)"
       spreadMethod="pad"
       id="linearGradient1116"><stop
         style="stop-opacity:1;stop-color:#b9e8ed"
         offset="0"
         id="stop1112" /><stop
         style="stop-opacity:1;stop-color:#7fccf2"
         offset="1"
         id="stop1114" /></linearGradient><clipPath
       clipPathUnits="userSpaceOnUse"
       id="clipPath1126"><path
         d="m 3505.12,524.711 h 2536.89 v 3950.58 H 3505.12 Z"
         id="path1124" /></clipPath><clipPath
       clipPathUnits="userSpaceOnUse"
       id="clipPath1132"><path
         d="m 3377.39,1178.5 c 280.27,37.97 517.32,-201.602 801.94,-239.43 95.82,-12.73 149.96,15.051 240.58,34.91 168.04,36.84 270.92,-76.269 428.14,-123.449 388.5,-116.621 780.4,-116.422 1179.06,-6.23 113.97,31.488 158.29,70.129 231.23,-16.34 C 6409.54,648.68 6573.1,177.148 6394.36,-27.3477 6243.89,-199.508 5849.7,-181.211 5644.99,-197.469 c -480.08,-38.152 -959.17,-149.152 -1442.15,-135.09 -295.52,8.598 -656.04,29.11 -939.33,117.34 -70.56,21.969 -189.16,90.949 -165.45,176.6213"
         id="path1130" /></clipPath><linearGradient
       x1="0"
       y1="0"
       x2="1"
       y2="0"
       gradientUnits="userSpaceOnUse"
       gradientTransform="matrix(-35.1289,-461.695,-461.695,35.1289,4848.54,923.5)"
       spreadMethod="pad"
       id="linearGradient1138"><stop
         style="stop-opacity:1;stop-color:#d77fa3"
         offset="0"
         id="stop1134" /><stop
         style="stop-opacity:1;stop-color:#875fb6"
         offset="1"
         id="stop1136" /></linearGradient><clipPath
       clipPathUnits="userSpaceOnUse"
       id="clipPath1148"><path
         d="m 3505.12,524.711 h 2536.89 v 3950.58 H 3505.12 Z"
         id="path1146" /></clipPath><clipPath
       clipPathUnits="userSpaceOnUse"
       id="clipPath1154"><path
         d="m 3341.78,892.281 c 164.25,65.52 360.78,-107.461 517.01,-153.051 118.85,-34.691 239.49,-37.808 360.86,-54.941 146.85,-20.719 235.34,-75.598 360.83,-152.469 174.6,-106.961 353.87,-128.961 542.07,-197.648 -219.77,-88.113 -513.45,-67.363 -749.87,-67.313 -373.41,0.082 -764.74,138.11 -1134.89,82.34"
         id="path1152" /></clipPath><linearGradient
       x1="0"
       y1="0"
       x2="1"
       y2="0"
       gradientUnits="userSpaceOnUse"
       gradientTransform="matrix(-184.876,-577.737,-577.737,184.876,4332.83,927.79)"
       spreadMethod="pad"
       id="linearGradient1160"><stop
         style="stop-opacity:1;stop-color:#cb5d96"
         offset="0"
         id="stop1156" /><stop
         style="stop-opacity:1;stop-color:#6d42a4"
         offset="1"
         id="stop1158" /></linearGradient><clipPath
       clipPathUnits="userSpaceOnUse"
       id="clipPath1170"><path
         d="m 9045.69,80 h -2950 310 v 4680 h 2950 -310 V 80"
         id="path1168" /></clipPath><clipPath
       clipPathUnits="userSpaceOnUse"
       id="clipPath1182"><path
         d="m 6095.69,80 h 310 v 4680 h -310 z"
         id="path1180" /></clipPath><clipPath
       clipPathUnits="userSpaceOnUse"
       id="clipPath1196"><path
         d="m 6457.99,524.711 h 2536.88 v 3950.58 H 6457.99 Z"
         id="path1194" /></clipPath><clipPath
       clipPathUnits="userSpaceOnUse"
       id="clipPath1206"><path
         d="m 8724.65,2713.01 c 0,-375.57 -304.45,-680.02 -680.02,-680.02 -375.56,0 -680.02,304.45 -680.02,680.02 0,375.56 304.46,680.02 680.02,680.02 375.57,0 680.02,-304.46 680.02,-680.02 z"
         id="path1204" /></clipPath><linearGradient
       x1="0"
       y1="0"
       x2="1"
       y2="0"
       gradientUnits="userSpaceOnUse"
       gradientTransform="matrix(578.741,1273.23,1273.23,-578.741,7831.57,2244.27)"
       spreadMethod="pad"
       id="linearGradient1212"><stop
         style="stop-opacity:1;stop-color:#f8a289"
         offset="0"
         id="stop1208" /><stop
         style="stop-opacity:1;stop-color:#ecdd9c"
         offset="1"
         id="stop1210" /></linearGradient><clipPath
       clipPathUnits="userSpaceOnUse"
       id="clipPath1222"><path
         d="m 6457.99,524.711 h 2536.88 v 3950.58 H 6457.99 Z"
         id="path1220" /></clipPath><clipPath
       clipPathUnits="userSpaceOnUse"
       id="clipPath1228"><path
         d="m 6360.28,2954.07 c 155.49,-74.46 238.52,-178.61 419.5,-169.56 85,4.25 128.38,14.62 201.8,-27.19 52.68,-30 96.59,-79.2 147.2,-115.02 117.94,-83.46 264.37,-96.65 404.55,-64.79 214.97,48.88 441.7,217.52 672.04,139.83 102.53,-34.58 165.52,-127.66 248.95,-191.75 246.22,-189.15 512.8,-340.03 799.36,-460.41 211.49,-88.85 255.88,-161.97 279.72,-390.74 C 9574.69,1278.2 9588.79,810.359 9232.01,564.5 8925.81,353.492 8525.75,221.699 8184.07,81.7617 7829.23,-63.5703 7512.65,-185.602 7123.49,-129.32 6892.34,-95.8906 6649.23,3.66016 6442.55,110.07 c -110.37,56.809 -212.38,135.371 -281.79,240.2"
         id="path1226" /></clipPath><linearGradient
       x1="0"
       y1="0"
       x2="1"
       y2="0"
       gradientUnits="userSpaceOnUse"
       gradientTransform="matrix(-239.43,-2055.1,-2055.1,239.43,8061.45,2987.56)"
       spreadMethod="pad"
       id="linearGradient1234"><stop
         style="stop-opacity:1;stop-color:#dbb554"
         offset="0"
         id="stop1230" /><stop
         style="stop-opacity:1;stop-color:#a8416c"
         offset="1"
         id="stop1232" /></linearGradient><clipPath
       clipPathUnits="userSpaceOnUse"
       id="clipPath1244"><path
         d="m 6457.99,524.711 h 2536.88 v 3950.58 H 6457.99 Z"
         id="path1242" /></clipPath><clipPath
       clipPathUnits="userSpaceOnUse"
       id="clipPath1250"><path
         d="m 6370.26,2263.95 c 110.64,81.09 244.06,238.48 381.05,201.62 72.9,-19.61 149.13,-111.75 210.28,-161.39 76.77,-62.32 150.18,-122.18 243.39,-148.16 126.73,-35.33 232.37,-42.95 332.73,-151.93 308.54,-335.02 688.4,-590.05 1097.15,-593.95 187.93,-1.8 504.97,74.11 654.87,-62.51 -243.36,-47.12 -495.97,-61.94 -744.02,-61.36 -414.19,0.96 -859.23,66.13 -1267.45,-9.54 -199.36,-36.95 -384.9,-92.84 -585.93,-101.07 -124.83,-5.1 -257.38,-41.84 -380.42,-20.87 -8.03,150.47 4.94,302.6 8.47,453.33"
         id="path1248" /></clipPath><linearGradient
       x1="0"
       y1="0"
       x2="1"
       y2="0"
       gradientUnits="userSpaceOnUse"
       gradientTransform="matrix(-196.074,-1458.3,-1458.3,196.074,7915.6,2442.44)"
       spreadMethod="pad"
       id="linearGradient1258"><stop
         style="stop-opacity:1;stop-color:#e7cd86"
         offset="0"
         id="stop1252" /><stop
         style="stop-opacity:1;stop-color:#e7cd86"
         offset="0.00011603"
         id="stop1254" /><stop
         style="stop-opacity:1;stop-color:#bc688c"
         offset="1"
         id="stop1256" /></linearGradient><clipPath
       clipPathUnits="userSpaceOnUse"
       id="clipPath1268"><path
         d="m 6457.99,524.711 h 2536.88 v 3950.58 H 6457.99 Z"
         id="path1266" /></clipPath><clipPath
       clipPathUnits="userSpaceOnUse"
       id="clipPath1274"><path
         d="m 6379.46,1850.86 c 192.99,12.82 344.51,-214 543.83,-245.57 190.47,-30.16 373.59,-17.33 560.58,-76.13 262.93,-82.68 475.14,-12.69 725.92,70.12 118.56,39.15 216.79,78.51 339.07,48.18 108.55,-26.92 207.83,-78.67 319.24,-101.58 187.03,-38.47 501.13,-23.66 651.72,-156.37 -120.8,-66.66 -286.77,-62.71 -422.43,-82.35 -457.88,-66.27 -926.26,-96.04 -1388.09,-83.14 -217.16,6.08 -429.64,24.43 -644.78,49.13 -148.56,17.06 -278.63,-7.49 -424.55,-17.03 -87.42,-5.72 -240.65,-27.26 -325.55,9.26 -4.45,118.14 12.79,238.95 18.63,357.26"
         id="path1272" /></clipPath><linearGradient
       x1="0"
       y1="0"
       x2="1"
       y2="0"
       gradientUnits="userSpaceOnUse"
       gradientTransform="matrix(-130.138,-795.808,-795.808,130.138,7976.94,1814.92)"
       spreadMethod="pad"
       id="linearGradient1280"><stop
         style="stop-opacity:1;stop-color:#f1e1b4"
         offset="0"
         id="stop1276" /><stop
         style="stop-opacity:1;stop-color:#d08fa9"
         offset="1"
         id="stop1278" /></linearGradient><clipPath
       clipPathUnits="userSpaceOnUse"
       id="clipPath1290"><path
         d="m 6457,524 h 2538 v 844 H 6457 Z"
         id="path1288" /></clipPath><linearGradient
       x1="0"
       y1="0"
       x2="1"
       y2="0"
       gradientUnits="userSpaceOnUse"
       gradientTransform="matrix(-174.765,-1161.67,-1161.67,174.765,7871.26,1368.27)"
       spreadMethod="pad"
       id="linearGradient1296"><stop
         style="stop-opacity:1;stop-color:#b9e8ed"
         offset="0"
         id="stop1292" /><stop
         style="stop-opacity:1;stop-color:#7fccf2"
         offset="1"
         id="stop1294" /></linearGradient><clipPath
       clipPathUnits="userSpaceOnUse"
       id="clipPath1306"><path
         d="m 6457.99,524.711 h 2536.88 v 3950.58 H 6457.99 Z"
         id="path1304" /></clipPath><clipPath
       clipPathUnits="userSpaceOnUse"
       id="clipPath1312"><path
         d="m 6380.24,879.211 c 164.8,0 346.61,-20.629 503.81,29.809 125.8,40.371 215.97,127.84 333.92,177.19 113.32,47.41 203.98,-5.91 315.77,-6.99 76.89,-0.75 133.52,39.02 207.8,-0.42 47.88,-25.43 68.44,-81.32 106.78,-115.941 84.44,-76.238 214.85,-105.57 323.98,-134.847 133.85,-35.91 313.34,12.398 431.84,-55.762 -88.81,-33.691 -195.65,-19.059 -289.31,-22.691 -137.12,-5.317 -273.55,-3.559 -410.58,-10.047 -145.32,-6.871 -282.54,-47.371 -429.96,-28.75 -143.6,18.148 -276.43,15.828 -419.87,13.019 -106.47,-2.09 -219.56,28.059 -323.77,-5.89 34.61,-119.559 284.25,-199.45 385.01,-277.832 -252.55,-66.539 -549.6,-3.25 -803.75,-78.387 -30.73,74.867 3.54,180.387 18.45,258.16"
         id="path1310" /></clipPath><linearGradient
       x1="0"
       y1="0"
       x2="1"
       y2="0"
       gradientUnits="userSpaceOnUse"
       gradientTransform="matrix(-199.525,-1217.1,-1217.1,199.525,7613.26,1602.25)"
       spreadMethod="pad"
       id="linearGradient1320"><stop
         style="stop-opacity:1;stop-color:#e7cd86"
         offset="0"
         id="stop1314" /><stop
         style="stop-opacity:1;stop-color:#e7cd86"
         offset="0.00011603"
         id="stop1316" /><stop
         style="stop-opacity:1;stop-color:#bc688c"
         offset="1"
         id="stop1318" /></linearGradient><clipPath
       clipPathUnits="userSpaceOnUse"
       id="clipPath1330"><path
         d="m 12315.7,80 h -3270.01 310 V 4760 H 12315.7 V 80"
         id="path1328" /></clipPath><clipPath
       clipPathUnits="userSpaceOnUse"
       id="clipPath1342"><path
         d="m 9045.69,80 h 310 v 4680 h -310 z"
         id="path1340" /></clipPath><clipPath
       clipPathUnits="userSpaceOnUse"
       id="clipPath1356"><path
         d="m 9410.86,524.711 h 2536.84 v 3950.58 H 9410.86 Z"
         id="path1354" /></clipPath><clipPath
       clipPathUnits="userSpaceOnUse"
       id="clipPath1366"><path
         d="m 9410.86,524.711 h 2536.84 v 3950.58 H 9410.86 Z"
         id="path1364" /></clipPath><clipPath
       clipPathUnits="userSpaceOnUse"
       id="clipPath1372"><path
         d="m 9333.2,2155.98 c 172.11,33.01 317.17,14.95 469.12,112.2 91.8,58.76 162.12,128.79 238.98,206.56 157.8,159.75 264.2,346.58 387,534.64 45.2,69.25 96.4,145.68 154.4,203.81 141.5,141.79 198,-38.09 327.2,-111.69 81.2,-46.24 58.3,12.63 139.2,2.89 44.5,-5.35 107.8,-75.52 133.2,-111.88 34.2,-49.1 41.5,-113.3 66.1,-166.99 35.9,-78.46 71.5,-151 124.6,-219.44 56.9,-73.36 114.5,-141.89 191.2,-194.37 43.8,-29.93 95.7,-55.48 145.2,-74.65 29.2,-11.35 131.6,-18.91 140.2,-52.85 4.8,-18.41 -52.8,-109.41 -59.9,-134.35 -26.9,-95.21 -31.9,-195.01 -40.9,-293.02 -11.8,-127.77 -13.8,-256.5 -26,-383.91 -9,-94.05 -7.3,-142.06 -103.2,-162.84 -147,-31.89 -310.1,-19.14 -459.2,-22.56 -264.4,-6.07 -527.1,5.16 -791.3,10.43 -240.6,4.8 -480.88,-11.7 -721.47,-10.06 -144.98,0.99 -270.89,25.79 -410.42,59.38"
         id="path1370" /></clipPath><linearGradient
       x1="0"
       y1="0"
       x2="1"
       y2="0"
       gradientUnits="userSpaceOnUse"
       gradientTransform="matrix(-168.451,-1445.87,-1445.87,168.451,10731.1,3423.87)"
       spreadMethod="pad"
       id="linearGradient1378"><stop
         style="stop-opacity:1;stop-color:#6fcc98"
         offset="0"
         id="stop1374" /><stop
         style="stop-opacity:1;stop-color:#457c8b"
         offset="1"
         id="stop1376" /></linearGradient><clipPath
       clipPathUnits="userSpaceOnUse"
       id="clipPath1388"><path
         d="m 9410.86,524.711 h 2536.84 v 3950.58 H 9410.86 Z"
         id="path1386" /></clipPath><clipPath
       clipPathUnits="userSpaceOnUse"
       id="clipPath1394"><path
         d="m 9333.2,1527.47 c 234.57,-19.29 572.71,107.05 756,249.96 140.2,109.33 276.5,298.99 452.6,338.87 135.8,30.77 246.6,-19.73 372.4,-62.57 173.4,-59.12 339.7,-29.4 501,56.86 150.1,80.26 262.9,219.04 375.8,343.37 63.4,69.78 128.8,146.84 206.4,201.56 107,75.46 136.4,55.98 200.6,-51.34 161.4,-269.8 360.7,-576.96 446.7,-880.3 36.7,-129.31 77.1,-279.82 -31.2,-377.21 -99.6,-89.62 -283.2,-97.02 -404.8,-111.03 -553.2,-63.74 -1091.6,-119.52 -1648.7,-106.51 -214.7,5.02 -430.3,-24.88 -645.16,-30.83 -210.29,-5.83 -433.5,25.54 -641.49,0.2"
         id="path1392" /></clipPath><linearGradient
       x1="0"
       y1="0"
       x2="1"
       y2="0"
       gradientUnits="userSpaceOnUse"
       gradientTransform="matrix(179.572,-977.671,-977.671,-179.572,10795.6,2322.57)"
       spreadMethod="pad"
       id="linearGradient1400"><stop
         style="stop-opacity:1;stop-color:#8ed7ad"
         offset="0"
         id="stop1396" /><stop
         style="stop-opacity:1;stop-color:#588f9b"
         offset="1"
         id="stop1398" /></linearGradient><clipPath
       clipPathUnits="userSpaceOnUse"
       id="clipPath1410"><path
         d="m 9410.86,524.711 h 2536.84 v 3950.58 H 9410.86 Z"
         id="path1408" /></clipPath><clipPath
       clipPathUnits="userSpaceOnUse"
       id="clipPath1416"><path
         d="m 9562.66,1288.05 c 234.75,12.06 425.57,85.23 618.74,210.01 82.2,53.11 187.5,163.53 289.6,177.07 151,20.03 269.7,-111.06 407.8,-127.71 179.6,-21.66 292.4,150.26 445.2,212.24 205.6,83.35 375.2,-60.96 568.2,-109.7 176.8,-44.66 357.8,-88.51 536.3,-128.6 123.2,-27.65 186.9,-10.31 167,-160.39 -16.3,-121.97 -87.6,-121.22 -208.8,-134.4 -272.1,-29.59 -544.9,-14.58 -816.9,-49.16 -596,-75.77 -1197.7,-223.672 -1787.67,-48.98"
         id="path1414" /></clipPath><linearGradient
       x1="0"
       y1="0"
       x2="1"
       y2="0"
       gradientUnits="userSpaceOnUse"
       gradientTransform="matrix(96.6165,-526.023,-526.023,-96.6165,11017.8,1700.11)"
       spreadMethod="pad"
       id="linearGradient1422"><stop
         style="stop-opacity:1;stop-color:#ade2c2"
         offset="0"
         id="stop1418" /><stop
         style="stop-opacity:1;stop-color:#6fa2aa"
         offset="1"
         id="stop1420" /></linearGradient><clipPath
       clipPathUnits="userSpaceOnUse"
       id="clipPath1432"><path
         d="m 9410,524 h 2538 v 854 H 9410 Z"
         id="path1430" /></clipPath><linearGradient
       x1="0"
       y1="0"
       x2="1"
       y2="0"
       gradientUnits="userSpaceOnUse"
       gradientTransform="matrix(2992.87,0,0,-2992.87,9263.37,839.11)"
       spreadMethod="pad"
       id="linearGradient1438"><stop
         style="stop-opacity:1;stop-color:#b9e8ed"
         offset="0"
         id="stop1434" /><stop
         style="stop-opacity:1;stop-color:#7fccf2"
         offset="1"
         id="stop1436" /></linearGradient><clipPath
       clipPathUnits="userSpaceOnUse"
       id="clipPath1448"><path
         d="m 9410.86,524.711 h 2536.84 v 3950.58 H 9410.86 Z"
         id="path1446" /></clipPath><clipPath
       clipPathUnits="userSpaceOnUse"
       id="clipPath1454"><path
         d="m 9602.66,167.801 c 121.6,87.551 263.53,140.898 383.94,234.09 96.6,74.738 154.2,173.91 232.9,263.129 118.6,134.57 254.5,234.281 431.6,267.82 160.6,30.398 318.7,-37.52 481.8,-34.379 197.4,3.809 288.1,112.119 462.6,176.169 120,44 244.2,24.97 366.6,4.85 215.9,-35.5 433.7,-68.54 652.5,-81.109 190.3,-10.941 413.7,25.169 595.2,-41.512 -103.3,-38.48 -196.9,-115.859 -297.3,-167.16 -288.9,-147.648 -467,-781.42947 -870,-382.73 -247.7,245.09 -721.7,-61.02 -1066.9,-113.168 -390.4,-59 -791.7,-66.199 -1184.8,-100.879"
         id="path1452" /></clipPath><linearGradient
       x1="0"
       y1="0"
       x2="1"
       y2="0"
       gradientUnits="userSpaceOnUse"
       gradientTransform="matrix(296.671,-771.858,-771.858,-296.671,11222.5,1040.51)"
       spreadMethod="pad"
       id="linearGradient1460"><stop
         style="stop-opacity:1;stop-color:#8ed7ad"
         offset="0"
         id="stop1456" /><stop
         style="stop-opacity:1;stop-color:#588f9b"
         offset="1"
         id="stop1458" /></linearGradient><clipPath
       clipPathUnits="userSpaceOnUse"
       id="clipPath1470"><path
         d="m 9410.86,524.711 h 2536.84 v 3950.58 H 9410.86 Z"
         id="path1468" /></clipPath><clipPath
       clipPathUnits="userSpaceOnUse"
       id="clipPath1476"><path
         d="m 10251.5,245.211 c 238.2,180.34 425.6,453.34 757,462.379 180.5,4.922 345.2,-86.59 528,-68.629 157.7,15.519 303.8,80.32 435.7,164.437 81.9,52.243 239.8,199.612 336.6,153.454 49.6,-23.672 84,-168.18 109.3,-217.891 47.5,-93.469 159.2,-253.66 78.6,-362.152 -93.9,-126.399 -431.5,-70.977 -536.4,-75.227 -388.3,-15.703 -769.9,-85.453 -1154.2,-137.25"
         id="path1474" /></clipPath><linearGradient
       x1="0"
       y1="0"
       x2="1"
       y2="0"
       gradientUnits="userSpaceOnUse"
       gradientTransform="matrix(-123.389,-987.115,-987.115,123.389,11517.8,1386.38)"
       spreadMethod="pad"
       id="linearGradient1482"><stop
         style="stop-opacity:1;stop-color:#6fcc98"
         offset="0"
         id="stop1478" /><stop
         style="stop-opacity:1;stop-color:#457c8b"
         offset="1"
         id="stop1480" /></linearGradient><clipPath
       clipPathUnits="userSpaceOnUse"
       id="clipPath1492"><path
         d="m 11666.3,3953.9 c 72.8,-175.58 -10.4,-376.96 -186,-449.8 -175.6,-72.84 -377,10.44 -449.8,186.02 -72.8,175.57 10.4,376.95 186,449.79 175.6,72.84 377,-10.44 449.8,-186.01 z"
         id="path1490" /></clipPath><linearGradient
       x1="0"
       y1="0"
       x2="1"
       y2="0"
       gradientUnits="userSpaceOnUse"
       gradientTransform="matrix(23.6158,707.477,707.477,-23.6158,11339.7,3561.55)"
       spreadMethod="pad"
       id="linearGradient1498"><stop
         style="stop-opacity:1;stop-color:#f8a289"
         offset="0"
         id="stop1494" /><stop
         style="stop-opacity:1;stop-color:#ecdd9c"
         offset="1"
         id="stop1496" /></linearGradient><clipPath
       clipPathUnits="userSpaceOnUse"
       id="clipPath1508"><path
         d="m 4250.58,3900.07 c -28.2,-57.2 -81.57,-101.32 -148.94,-115.26 -115.95,-23.98 -229.5,50.57 -253.5,166.62 -24,116.04 50.67,229.51 166.61,253.49 9.11,1.89 18.14,3.14 27.2,3.79 -20.56,-41.32 -27.83,-89.59 -17.77,-138.26 22.14,-107.04 120.29,-178.75 226.4,-170.38 z"
         id="path1506" /></clipPath><linearGradient
       x1="0"
       y1="0"
       x2="1"
       y2="0"
       gradientUnits="userSpaceOnUse"
       gradientTransform="matrix(95.2535,420.655,420.655,-95.2535,4019.16,3836)"
       spreadMethod="pad"
       id="linearGradient1514"><stop
         style="stop-opacity:1;stop-color:#f8a289"
         offset="0"
         id="stop1510" /><stop
         style="stop-opacity:1;stop-color:#ecdd9c"
         offset="1"
         id="stop1512" /></linearGradient></defs><sodipodi:namedview
     id="namedview826"
     pagecolor="#505050"
     bordercolor="#eeeeee"
     borderopacity="1"
     inkscape:pageshadow="0"
     inkscape:pageopacity="0"
     inkscape:pagecheckerboard="0"
     showgrid="false"
     fit-margin-top="0"
     fit-margin-left="0"
     fit-margin-right="0"
     fit-margin-bottom="0"
     inkscape:zoom="0.47279998"
     inkscape:cx="759.30629"
     inkscape:cy="263.32488"
     inkscape:window-width="1536"
     inkscape:window-height="961"
     inkscape:window-x="-8"
     inkscape:window-y="-8"
     inkscape:window-maximized="1"
     inkscape:current-layer="g830" /><g
     id="g830"
     inkscape:groupmode="layer"
     inkscape:label="ink_ext_XXXXXX"
     transform="matrix(1.3333333,0,0,-1.3333333,-73.599998,596.70545)"><path
       d="M 308.914,52.4711 H 55.2258 V 447.529 H 308.914 V 52.4711"
       style="fill:#feece3;fill-opacity:1;fill-rule:nonzero;stroke:none;stroke-width:0.1"
       id="path848" /><g
       id="g850"
       transform="scale(0.1)"><g
         id="g852"
         clip-path="url(#clipPath856)"><path
           d="M 3207.79,390.191 H 414.449 V 4630.08 H 3207.79 V 390.191"
           style="fill:#feeeeb;fill-opacity:1;fill-rule:nonzero;stroke:none"
           id="path858" /></g></g><g
       id="g860"
       transform="scale(0.1)"><g
         id="g862"
         clip-path="url(#clipPath866)"><g
           id="g868"
           clip-path="url(#clipPath872)"><path
             d="m 873,1651 v 1 h -18 v 1 h -18 v 1 h -17 v 1 h -10 v 1 h -9 v 1 h -9 v 1 h -9 v 1 h -9 v 1 h -8 v 1 h -6 v 1 h -7 v 1 h -8 v 1 h -13 v 1 h -17 v 1 h -21 v 1 h -23 v 1 h -24 v 1 h -23 v 1 h -22 v 1 h -20 v 1 h -19 v 1 h -11 v 1050 h 1 v -1 h 1 v -1 h 1 v -1 h 2 v -1 h 1 v -1 h 1 v -1 h 1 v -1 h 1 v -1 h 1 v -1 h 1 v -1 h 1 v -1 h 1 v -1 h 1 v -1 h 1 v -1 h 1 v -1 h 1 v -1 h 1 v -1 h 1 v -1 h 1 v -1 h 1 v -1 h 1 v -1 h 1 v -1 h 1 v -1 h 1 v -1 h 1 v -1 h 1 v -1 h 1 v -1 h 1 v -1 h 1 v -1 h 1 v -1 h 1 v -1 h 1 v -1 h 1 v -1 h 1 v -1 h 1 v -1 h 1 v -1 h 1 v -1 h 1 v -1 h 1 v -1 h 1 v -1 h 1 v -1 h 1 v -1 h 1 v -1 h 1 v -1 h 1 v -1 h 1 v -1 h 1 v -1 h 1 v -1 h 1 v -1 h 1 v -1 h 1 v -1 h 1 v -1 h 1 v -1 h 1 v -1 h 1 v -1 h 1 v -1 h 1 v -1 h 1 v -1 h 1 v -1 h 1 v -1 h 1 v -1 h 1 v -1 h 1 v -1 h 1 v -1 h 1 v -1 h 1 v -1 h 1 v -1 h 1 v -1 h 1 v -1 h 1 v -1 h 1 v -1 h 1 v -1 h 1 v -1 h 1 v -1 h 1 v -1 h 1 v -1 h 1 v -1 h 1 v -1 h 1 v -1 h 1 v -1 h 1 v -1 h 1 v -1 h 1 v -1 h 1 v -1 h 1 v -1 h 1 v -1 h 2 v -1 h 1 v -1 h 1 v -1 h 1 v -1 h 1 v -1 h 1 v -1 h 1 v -1 h 1 v -1 h 1 v -1 h 1 v -1 h 1 v -1 h 1 v -1 h 1 v -1 h 1 v -1 h 1 v -1 h 2 v -1 h 1 v -1 h 1 v -1 h 1 v -1 h 1 v -1 h 1 v -1 h 1 v -1 h 1 v -1 h 1 v -1 h 2 v -1 h 1 v -1 h 1 v -1 h 1 v -1 h 1 v -1 h 1 v -1 h 1 v -1 h 2 v -1 h 1 v -1 h 1 v -1 h 1 v -1 h 1 v -1 h 1 v -1 h 2 v -1 h 1 v -1 h 1 v -1 h 1 v -1 h 1 v -1 h 2 v -1 h 1 v -1 h 1 v -1 h 1 v -1 h 2 v -1 h 1 v -1 h 1 v -1 h 2 v -1 h 1 v -1 h 1 v -1 h 1 v -1 h 2 v -1 h 1 v -1 h 1 v -1 h 2 v -1 h 1 v -1 h 1 v -1 h 2 v -1 h 1 v -1 h 2 v -1 h 1 v -1 h 1 v -1 h 2 v -1 h 1 v -1 h 2 v -1 h 1 v -1 h 2 v -1 h 1 v -1 h 2 v -1 h 1 v -1 h 2 v -1 h 2 v -1 h 1 v -1 h 2 v -1 h 1 v -1 h 2 v -1 h 2 v -1 h 1 v -1 h 2 v -1 h 2 v -1 h 2 v -1 h 2 v -1 h 1 v -1 h 2 v -1 h 2 v -1 h 2 v -1 h 2 v -1 h 2 v -1 h 2 v -1 h 2 v -1 h 3 v -1 h 2 v -1 h 2 v -1 h 2 v -1 h 3 v -1 h 2 v -1 h 3 v -1 h 3 v -1 h 3 v -1 h 2 v -1 h 3 v -1 h 3 v -1 h 4 v -1 h 4 v -1 h 4 v -1 h 4 v -1 h 4 v -1 h 7 v -1 h 6 v -1 h 11 v -1 h 17 v -1 h 39 v 1 h 19 v 1 h 10 v 1 h 10 v 1 h 8 v 1 h 7 v 1 h 6 v 1 h 7 v 1 h 5 v 1 h 5 v 1 h 6 v 1 h 5 v 1 h 5 v 1 h 4 v 1 h 4 v 1 h 4 v 1 h 4 v 1 h 4 v 1 h 4 v 1 h 4 v 1 h 3 v 1 h 4 v 1 h 4 v 1 h 3 v 1 h 4 v 1 h 3 v 1 h 3 v 1 h 3 v 1 h 3 v 1 h 4 v 1 h 3 v 1 h 3 v 1 h 3 v 1 h 3 v 1 h 3 v 1 h 3 v 1 h 3 v 1 h 2 v 1 h 3 v 1 h 3 v 1 h 3 v 1 h 3 v 1 h 2 v 1 h 3 v 1 h 3 v 1 h 2 v 1 h 3 v 1 h 3 v 1 h 2 v 1 h 3 v 1 h 3 v 1 h 2 v 1 h 3 v 1 h 2 v 1 h 3 v 1 h 2 v 1 h 3 v 1 h 2 v 1 h 3 v 1 h 2 v 1 h 3 v 1 h 2 v 1 h 3 v 1 h 2 v 1 h 3 v 1 h 2 v 1 h 2 v 1 h 3 v 1 h 2 v 1 h 3 v 1 h 2 v 1 h 2 v 1 h 3 v 1 h 2 v 1 h 2 v 1 h 3 v 1 h 2 v 1 h 3 v 1 h 2 v 1 h 2 v 1 h 3 v 1 h 2 v 1 h 2 v 1 h 3 v 1 h 2 v 1 h 2 v 1 h 3 v 1 h 2 v 1 h 2 v 1 h 3 v 1 h 2 v 1 h 2 v 1 h 3 v 1 h 2 v 1 h 2 v 1 h 3 v 1 h 2 v 1 h 2 v 1 h 3 v 1 h 2 v 1 h 3 v 1 h 2 v 1 h 2 v 1 h 3 v 1 h 2 v 1 h 3 v 1 h 2 v 1 h 3 v 1 h 3 v 1 h 3 v 1 h 2 v 1 h 3 v 1 h 3 v 1 h 3 v 1 h 2 v 1 h 3 v 1 h 3 v 1 h 4 v 1 h 3 v 1 h 4 v 1 h 3 v 1 h 4 v 1 h 3 v 1 h 4 v 1 h 3 v 1 h 4 v 1 h 4 v 1 h 3 v 1 h 5 v 1 h 6 v 1 h 5 v 1 h 6 v 1 h 5 v 1 h 6 v 1 h 5 v 1 h 10 v 1 h 13 v 1 h 12 v 1 h 25 v -1 h 22 v -1 h 9 v -1 h 9 v -1 h 9 v -1 h 6 v -1 h 5 v -1 h 5 v -1 h 4 v -1 h 5 v -1 h 5 v -1 h 5 v -1 h 4 v -1 h 3 v -1 h 4 v -1 h 4 v -1 h 3 v -1 h 4 v -1 h 3 v -1 h 4 v -1 h 3 v -1 h 3 v -1 h 3 v -1 h 3 v -1 h 3 v -1 h 3 v -1 h 2 v -1 h 3 v -1 h 3 v -1 h 3 v -1 h 3 v -1 h 3 v -1 h 2 v -1 h 3 v -1 h 2 v -1 h 3 v -1 h 2 v -1 h 3 v -1 h 2 v -1 h 2 v -1 h 3 v -1 h 2 v -1 h 3 v -1 h 2 v -1 h 3 v -1 h 2 v -1 h 2 v -1 h 3 v -1 h 2 v -1 h 2 v -1 h 2 v -1 h 2 v -1 h 3 v -1 h 2 v -1 h 2 v -1 h 2 v -1 h 2 v -1 h 2 v -1 h 3 v -1 h 2 v -1 h 2 v -1 h 2 v -1 h 2 v -1 h 2 v -1 h 2 v -1 h 2 v -1 h 3 v -1 h 2 v -1 h 2 v -1 h 2 v -1 h 2 v -1 h 2 v -1 h 2 v -1 h 2 v -1 h 2 v -1 h 2 v -1 h 2 v -1 h 2 v -1 h 2 v -1 h 2 v -1 h 2 v -1 h 2 v -1 h 2 v -1 h 2 v -1 h 2 v -1 h 2 v -1 h 2 v -1 h 2 v -1 h 2 v -1 h 2 v -1 h 2 v -1 h 2 v -1 h 2 v -1 h 2 v -1 h 2 v -1 h 2 v -1 h 2 v -1 h 2 v -1 h 2 v -1 h 2 v -1 h 2 v -1 h 2 v -1 h 2 v -1 h 2 v -1 h 2 v -1 h 2 v -1 h 2 v -1 h 2 v -1 h 2 v -1 h 2 v -1 h 2 v -1 h 2 v -1 h 2 v -1 h 2 v -1 h 2 v -1 h 2 v -1 h 2 v -1 h 2 v -1 h 2 v -1 h 2 v -1 h 2 v -1 h 2 v -1 h 2 v -1 h 2 v -1 h 2 v -1 h 2 v -1 h 2 v -1 h 2 v -1 h 2 v -1 h 3 v -1 h 2 v -1 h 2 v -1 h 2 v -1 h 2 v -1 h 2 v -1 h 2 v -1 h 2 v -1 h 2 v -1 h 3 v -1 h 2 v -1 h 2 v -1 h 2 v -1 h 2 v -1 h 2 v -1 h 2 v -1 h 3 v -1 h 2 v -1 h 2 v -1 h 2 v -1 h 2 v -1 h 3 v -1 h 2 v -1 h 2 v -1 h 2 v -1 h 3 v -1 h 2 v -1 h 3 v -1 h 3 v -1 h 2 v -1 h 3 v -1 h 3 v -1 h 2 v -1 h 3 v -1 h 2 v -1 h 3 v -1 h 3 v -1 h 2 v -1 h 3 v -1 h 3 v -1 h 4 v -1 h 3 v -1 h 3 v -1 h 4 v -1 h 3 v -1 h 4 v -1 h 3 v -1 h 3 v -1 h 4 v -1 h 3 v -1 h 3 v -1 h 4 v -1 h 3 v -1 h 5 v -1 h 5 v -1 h 5 v -1 h 5 v -1 h 5 v -1 h 5 v -1 h 5 v -1 h 5 v -1 h 5 v -1 h 6 v -1 h 9 v -1 h 9 v -1 h 10 v -1 h 9 v -1 h 15 v -1 h 34 v -1 h 4 v 1 h 24 v 1 h 21 v 1 h 10 v 1 h 10 v 1 h 9 v 1 h 10 v 1 h 8 v 1 h 7 v 1 h 6 v 1 h 7 v 1 h 7 v 1 h 6 v 1 h 7 v 1 h 5 v 1 h 6 v 1 h 5 v 1 h 5 v 1 h 6 v 1 h 5 v 1 h 5 v 1 h 6 v 1 h 5 v 1 h 4 v 1 h 5 v 1 h 5 v 1 h 5 v 1 h 4 v 1 h 5 v 1 h 5 v 1 h 5 v 1 h 4 v 1 h 5 v 1 h 4 v 1 h 5 v 1 h 5 v 1 h 4 v 1 h 5 v 1 h 4 v 1 h 5 v 1 h 4 v 1 h 5 v 1 h 4 v 1 h 5 v 1 h 4 v 1 h 5 v 1 h 4 v 1 h 5 v 1 h 5 v 1 h 4 v 1 h 5 v 1 h 4 v 1 h 5 v 1 h 5 v 1 h 5 v 1 h 5 v 1 h 5 v 1 h 5 v 1 h 4 v 1 h 5 v 1 h 5 v 1 h 6 v 1 h 5 v 1 h 6 v 1 h 6 v 1 h 5 v 1 h 6 v 1 h 5 v 1 h 6 v 1 h 6 v 1 h 7 v 1 h 7 v 1 h 7 v 1 h 8 v 1 h 7 v 1 h 7 v 1 h 9 v 1 h 10 v 1 h 9 v 1 h 11 v 1 h 11 v -10 h 1 v -16 h 1 v -19 h 1 v -29 h 1 v -46 h -1 v -20 h -1 v -16 h -1 v -9 h -1 v -8 h -1 v -7 h -1 v -8 h -1 v -5 h -1 v -5 h -1 v -4 h -1 v -4 h -1 v -5 h -1 v -4 h -1 v -5 h -1 v -3 h -1 v -3 h -1 v -2 h -1 v -3 h -1 v -3 h -1 v -3 h -1 v -3 h -1 v -2 h -1 v -2 h -1 v -2 h -1 v -3 h -1 v -2 h -1 v -1 h -1 v -2 h -1 v -2 h -1 v -2 h -1 v -1 h -1 v -2 h -1 v -2 h -1 v -1 h -1 v -2 h -1 v -1 h -1 v -2 h -1 v -1 h -1 v -1 h -1 v -2 h -1 v -1 h -1 v -2 h -1 v -1 h -1 v -1 h -1 v -1 h -1 v -1 h -1 v -2 h -1 v -1 h -1 v -1 h -1 v -1 h -1 v -1 h -1 v -1 h -1 v -2 h -1 v -1 h -1 v -1 h -2 v -1 h -1 v -1 h -1 v -1 h -1 v -1 h -1 v -1 h -1 v -1 h -1 v -1 h -1 v -1 h -1 v -1 h -1 v -1 h -1 v -1 h -2 v -1 h -1 v -1 h -1 v -1 h -1 v -1 h -2 v -1 h -1 v -1 h -1 v -1 h -1 v -1 h -2 v -1 h -1 v -1 h -2 v -1 h -1 v -1 h -2 v -1 h -1 v -1 h -1 v -1 h -2 v -1 h -1 v -1 h -2 v -1 h -2 v -1 h -1 v -1 h -2 v -1 h -2 v -1 h -1 v -1 h -2 v -1 h -2 v -1 h -2 v -1 h -1 v -1 h -2 v -1 h -2 v -1 h -2 v -1 h -2 v -1 h -2 v -1 h -2 v -1 h -2 v -1 h -2 v -1 h -2 v -1 h -2 v -1 h -3 v -1 h -2 v -1 h -2 v -1 h -2 v -1 h -2 v -1 h -3 v -1 h -2 v -1 h -3 v -1 h -2 v -1 h -3 v -1 h -2 v -1 h -2 v -1 h -3 v -1 h -3 v -1 h -2 v -1 h -3 v -1 h -2 v -1 h -3 v -1 h -3 v -1 h -2 v -1 h -3 v -1 h -3 v -1 h -3 v -1 h -2 v -1 h -3 v -1 h -3 v -1 h -3 v -1 h -2 v -1 h -3 v -1 h -3 v -1 h -3 v -1 h -2 v -1 h -3 v -1 h -3 v -1 h -2 v -1 h -3 v -1 h -3 v -1 h -2 v -1 h -3 v -1 h -3 v -1 h -2 v -1 h -3 v -1 h -3 v -1 h -2 v -1 h -3 v -1 h -2 v -1 h -3 v -1 h -2 v -1 h -2 v -1 h -3 v -1 h -2 v -1 h -3 v -1 h -2 v -1 h -2 v -1 h -3 v -1 h -2 v -1 h -2 v -1 h -3 v -1 h -2 v -1 h -2 v -1 h -3 v -1 h -2 v -1 h -3 v -1 h -2 v -1 h -2 v -1 h -3 v -1 h -2 v -1 h -2 v -1 h -3 v -1 h -2 v -1 h -2 v -1 h -3 v -1 h -2 v -1 h -3 v -1 h -2 v -1 h -2 v -1 h -3 v -1 h -2 v -1 h -2 v -1 h -3 v -1 h -2 v -1 h -2 v -1 h -3 v -1 h -2 v -1 h -3 v -1 h -2 v -1 h -2 v -1 h -3 v -1 h -2 v -1 h -2 v -1 h -3 v -1 h -2 v -1 h -3 v -1 h -2 v -1 h -2 v -1 h -3 v -1 h -2 v -1 h -2 v -1 h -3 v -1 h -2 v -1 h -2 v -1 h -3 v -1 h -2 v -1 h -3 v -1 h -2 v -1 h -2 v -1 h -3 v -1 h -2 v -1 h -2 v -1 h -3 v -1 h -2 v -1 h -2 v -1 h -3 v -1 h -2 v -1 h -2 v -1 h -3 v -1 h -2 v -1 h -2 v -1 h -3 v -1 h -2 v -1 h -2 v -1 h -3 v -1 h -2 v -1 h -3 v -1 h -2 v -1 h -2 v -1 h -3 v -1 h -2 v -1 h -2 v -1 h -3 v -1 h -2 v -1 h -2 v -1 h -3 v -1 h -2 v -1 h -2 v -1 h -3 v -1 h -2 v -1 h -2 v -1 h -3 v -1 h -2 v -1 h -2 v -1 h -3 v -1 h -2 v -1 h -2 v -1 h -3 v -1 h -2 v -1 h -2 v -1 h -3 v -1 h -2 v -1 h -2 v -1 h -3 v -1 h -2 v -1 h -2 v -1 h -3 v -1 h -2 v -1 h -2 v -1 h -3 v -1 h -2 v -1 h -2 v -1 h -3 v -1 h -2 v -1 h -2 v -1 h -3 v -1 h -2 v -1 h -3 v -1 h -2 v -1 h -2 v -1 h -3 v -1 h -2 v -1 h -2 v -1 h -3 v -1 h -2 v -1 h -2 v -1 h -2 v -1 h -3 v -1 h -2 v -1 h -2 v -1 h -3 v -1 h -2 v -1 h -2 v -1 h -2 v -1 h -3 v -1 h -2 v -1 h -2 v -1 h -3 v -1 h -2 v -1 h -2 v -1 h -2 v -1 h -3 v -1 h -2 v -1 h -2 v -1 h -3 v -1 h -2 v -1 h -2 v -1 h -2 v -1 h -3 v -1 h -2 v -1 h -2 v -1 h -3 v -1 h -2 v -1 h -2 v -1 h -2 v -1 h -3 v -1 h -2 v -1 h -2 v -1 h -2 v -1 h -3 v -1 h -2 v -1 h -2 v -1 h -3 v -1 h -2 v -1 h -2 v -1 h -2 v -1 h -3 v -1 h -2 v -1 h -2 v -1 h -3 v -1 h -2 v -1 h -2 v -1 h -2 v -1 h -3 v -1 h -2 v -1 h -2 v -1 h -3 v -1 h -2 v -1 h -2 v -1 h -2 v -1 h -3 v -1 h -2 v -1 h -2 v -1 h -3 v -1 h -2 v -1 h -2 v -1 h -2 v -1 h -3 v -1 h -2 v -1 h -2 v -1 h -2 v -1 h -3 v -1 h -2 v -1 h -2 v -1 h -2 v -1 h -2 v -1 h -3 v -1 h -2 v -1 h -2 v -1 h -2 v -1 h -2 v -1 h -3 v -1 h -2 v -1 h -2 v -1 h -2 v -1 h -2 v -1 h -3 v -1 h -2 v -1 h -2 v -1 h -2 v -1 h -3 v -1 h -2 v -1 h -2 v -1 h -2 v -1 h -2 v -1 h -3 v -1 h -2 v -1 h -2 v -1 h -2 v -1 h -2 v -1 h -3 v -1 h -2 v -1 h -2 v -1 h -2 v -1 h -2 v -1 h -3 v -1 h -2 v -1 h -2 v -1 h -2 v -1 h -3 v -1 h -2 v -1 h -2 v -1 h -2 v -1 h -2 v -1 h -3 v -1 h -2 v -1 h -2 v -1 h -2 v -1 h -2 v -1 h -2 v -1 h -3 v -1 h -2 v -1 h -2 v -1 h -2 v -1 h -2 v -1 h -2 v -1 h -2 v -1 h -2 v -1 h -3 v -1 h -2 v -1 h -2 v -1 h -2 v -1 h -2 v -1 h -2 v -1 h -2 v -1 h -3 v -1 h -2 v -1 h -2 v -1 h -2 v -1 h -2 v -1 h -2 v -1 h -2 v -1 h -3 v -1 h -2 v -1 h -2 v -1 h -2 v -1 h -2 v -1 h -2 v -1 h -2 v -1 h -2 v -1 h -3 v -1 h -2 v -1 h -2 v -1 h -2 v -1 h -2 v -1 h -2 v -1 h -2 v -1 h -2 v -1 h -2 v -1 h -3 v -1 h -2 v -1 h -2 v -1 h -2 v -1 h -2 v -1 h -2 v -1 h -2 v -1 h -2 v -1 h -3 v -1 h -2 v -1 h -2 v -1 h -2 v -1 h -2 v -1 h -2 v -1 h -2 v -1 h -2 v -1 h -3 v -1 h -2 v -1 h -2 v -1 h -2 v -1 h -2 v -1 h -2 v -1 h -2 v -1 h -2 v -1 h -3 v -1 h -2 v -1 h -2 v -1 h -2 v -1 h -2 v -1 h -2 v -1 h -2 v -1 h -3 v -1 h -2 v -1 h -2 v -1 h -2 v -1 h -2 v -1 h -2 v -1 h -2 v -1 h -3 v -1 h -2 v -1 h -2 v -1 h -2 v -1 h -2 v -1 h -2 v -1 h -2 v -1 h -3 v -1 h -2 v -1 h -2 v -1 h -2 v -1 h -2 v -1 h -2 v -1 h -3 v -1 h -2 v -1 h -2 v -1 h -2 v -1 h -2 v -1 h -2 v -1 h -2 v -1 h -3 v -1 h -2 v -1 h -2 v -1 h -2 v -1 h -3 v -1 h -2 v -1 h -2 v -1 h -2 v -1 h -2 v -1 h -3 v -1 h -2 v -1 h -2 v -1 h -2 v -1 h -2 v -1 h -3 v -1 h -2 v -1 h -2 v -1 h -2 v -1 h -2 v -1 h -3 v -1 h -2 v -1 h -2 v -1 h -2 v -1 h -2 v -1 h -3 v -1 h -2 v -1 h -2 v -1 h -3 v -1 h -2 v -1 h -2 v -1 h -3 v -1 h -2 v -1 h -2 v -1 h -2 v -1 h -3 v -1 h -2 v -1 h -2 v -1 h -3 v -1 h -2 v -1 h -2 v -1 h -3 v -1 h -2 v -1 h -2 v -1 h -3 v -1 h -2 v -1 h -2 v -1 h -2 v -1 h -3 v -1 h -2 v -1 h -2 v -1 h -3 v -1 h -2 v -1 h -3 v -1 h -2 v -1 h -3 v -1 h -2 v -1 h -3 v -1 h -2 v -1 h -2 v -1 h -3 v -1 h -2 v -1 h -3 v -1 h -2 v -1 h -3 v -1 h -2 v -1 h -3 v -1 h -2 v -1 h -2 v -1 h -3 v -1 h -2 v -1 h -3 v -1 h -2 v -1 h -3 v -1 h -2 v -1 h -3 v -1 h -3 v -1 h -2 v -1 h -3 v -1 h -3 v -1 h -2 v -1 h -3 v -1 h -3 v -1 h -2 v -1 h -3 v -1 h -3 v -1 h -2 v -1 h -3 v -1 h -3 v -1 h -2 v -1 h -3 v -1 h -3 v -1 h -2 v -1 h -3 v -1 h -3 v -1 h -2 v -1 h -3 v -1 h -3 v -1 h -3 v -1 h -3 v -1 h -3 v -1 h -3 v -1 h -3 v -1 h -3 v -1 h -3 v -1 h -3 v -1 h -3 v -1 h -3 v -1 h -3 v -1 h -3 v -1 h -3 v -1 h -3 v -1 h -3 v -1 h -3 v -1 h -3 v -1 h -3 v -1 h -3 v -1 h -3 v -1 h -4 v -1 h -3 v -1 h -4 v -1 h -3 v -1 h -4 v -1 h -3 v -1 h -3 v -1 h -4 v -1 h -3 v -1 h -4 v -1 h -3 v -1 h -3 v -1 h -4 v -1 h -3 v -1 h -4 v -1 h -4 v -1 h -4 v -1 h -4 v -1 h -4 v -1 h -4 v -1 h -4 v -1 h -5 v -1 h -4 v -1 h -4 v -1 h -4 v -1 h -4 v -1 h -4 v -1 h -4 v -1 h -4 v -1 h -5 v -1 h -6 v -1 h -5 v -1 h -5 v -1 h -5 v -1 h -6 v -1 h -5 v -1 h -5 v -1 h -5 v -1 h -6 v -1 h -5 v -1 h -6 v -1 h -8 v -1 h -7 v -1 h -8 v -1 h -7 v -1 h -8 v -1 h -7 v -1 h -8 v -1 h -10 v -1 h -14 v -1 h -14 v -1 h -14 v -1 h -13 v -1"
             style="fill:url(#linearGradient878);fill-opacity:1;fill-rule:nonzero;stroke:none"
             id="path880" /></g></g></g><g
       id="g882"
       transform="scale(0.1)"><g
         id="g884"
         clip-path="url(#clipPath888)"><g
           id="g890"
           clip-path="url(#clipPath894)"><path
             d="m 552,524 v 1584 h 2 v 1 h 1 v 1 h 2 v 1 h 2 v 1 h 2 v 1 h 1 v 1 h 2 v 1 h 2 v 1 h 2 v 1 h 1 v 1 h 2 v 1 h 2 v 1 h 2 v 1 h 1 v 1 h 2 v 1 h 2 v 1 h 2 v 1 h 1 v 1 h 2 v 1 h 2 v 1 h 2 v 1 h 1 v 1 h 2 v 1 h 2 v 1 h 2 v 1 h 1 v 1 h 2 v 1 h 2 v 1 h 2 v 1 h 1 v 1 h 2 v 1 h 2 v 1 h 2 v 1 h 1 v 1 h 2 v 1 h 2 v 1 h 2 v 1 h 1 v 1 h 2 v 1 h 2 v 1 h 2 v 1 h 1 v 1 h 2 v 1 h 2 v 1 h 1 v 1 h 2 v 1 h 2 v 1 h 2 v 1 h 2 v 1 h 1 v 1 h 2 v 1 h 2 v 1 h 2 v 1 h 1 v 1 h 2 v 1 h 2 v 1 h 2 v 1 h 1 v 1 h 2 v 1 h 2 v 1 h 2 v 1 h 2 v 1 h 1 v 1 h 2 v 1 h 2 v 1 h 2 v 1 h 2 v 1 h 1 v 1 h 2 v 1 h 2 v 1 h 2 v 1 h 2 v 1 h 2 v 1 h 1 v 1 h 2 v 1 h 2 v 1 h 2 v 1 h 2 v 1 h 2 v 1 h 1 v 1 h 2 v 1 h 2 v 1 h 2 v 1 h 2 v 1 h 2 v 1 h 2 v 1 h 2 v 1 h 2 v 1 h 1 v 1 h 2 v 1 h 2 v 1 h 2 v 1 h 2 v 1 h 2 v 1 h 2 v 1 h 2 v 1 h 2 v 1 h 2 v 1 h 2 v 1 h 2 v 1 h 2 v 1 h 2 v 1 h 2 v 1 h 2 v 1 h 2 v 1 h 2 v 1 h 2 v 1 h 3 v 1 h 2 v 1 h 2 v 1 h 2 v 1 h 2 v 1 h 2 v 1 h 2 v 1 h 2 v 1 h 3 v 1 h 2 v 1 h 2 v 1 h 2 v 1 h 2 v 1 h 3 v 1 h 2 v 1 h 2 v 1 h 3 v 1 h 2 v 1 h 3 v 1 h 2 v 1 h 2 v 1 h 3 v 1 h 2 v 1 h 3 v 1 h 2 v 1 h 2 v 1 h 3 v 1 h 2 v 1 h 3 v 1 h 2 v 1 h 3 v 1 h 3 v 1 h 2 v 1 h 3 v 1 h 3 v 1 h 3 v 1 h 2 v 1 h 3 v 1 h 3 v 1 h 3 v 1 h 3 v 1 h 3 v 1 h 3 v 1 h 3 v 1 h 4 v 1 h 4 v 1 h 4 v 1 h 4 v 1 h 4 v 1 h 6 v 1 h 6 v 1 h 6 v 1 h 7 v 1 h 15 v 1 h 37 v -1 h 12 v -1 h 11 v -1 h 8 v -1 h 8 v -1 h 7 v -1 h 6 v -1 h 6 v -1 h 6 v -1 h 6 v -1 h 5 v -1 h 5 v -1 h 6 v -1 h 5 v -1 h 6 v -1 h 5 v -1 h 5 v -1 h 5 v -1 h 6 v -1 h 5 v -1 h 6 v -1 h 6 v -1 h 5 v -1 h 7 v -1 h 7 v -1 h 7 v -1 h 8 v -1 h 10 v -1 h 11 v -1 h 46 v 1 h 8 v 1 h 8 v 1 h 8 v 1 h 5 v 1 h 5 v 1 h 4 v 1 h 5 v 1 h 3 v 1 h 4 v 1 h 4 v 1 h 2 v 1 h 3 v 1 h 3 v 1 h 3 v 1 h 3 v 1 h 3 v 1 h 2 v 1 h 2 v 1 h 3 v 1 h 2 v 1 h 2 v 1 h 3 v 1 h 2 v 1 h 3 v 1 h 2 v 1 h 2 v 1 h 2 v 1 h 2 v 1 h 2 v 1 h 2 v 1 h 2 v 1 h 2 v 1 h 2 v 1 h 2 v 1 h 2 v 1 h 1 v 1 h 2 v 1 h 2 v 1 h 1 v 1 h 2 v 1 h 2 v 1 h 2 v 1 h 1 v 1 h 2 v 1 h 2 v 1 h 2 v 1 h 1 v 1 h 2 v 1 h 1 v 1 h 2 v 1 h 2 v 1 h 1 v 1 h 2 v 1 h 1 v 1 h 2 v 1 h 1 v 1 h 2 v 1 h 1 v 1 h 2 v 1 h 2 v 1 h 1 v 1 h 1 v 1 h 2 v 1 h 1 v 1 h 2 v 1 h 1 v 1 h 2 v 1 h 1 v 1 h 2 v 1 h 1 v 1 h 2 v 1 h 1 v 1 h 1 v 1 h 2 v 1 h 1 v 1 h 2 v 1 h 1 v 1 h 1 v 1 h 2 v 1 h 1 v 1 h 2 v 1 h 1 v 1 h 1 v 1 h 2 v 1 h 1 v 1 h 2 v 1 h 1 v 1 h 1 v 1 h 2 v 1 h 1 v 1 h 2 v 1 h 1 v 1 h 1 v 1 h 2 v 1 h 1 v 1 h 1 v 1 h 2 v 1 h 1 v 1 h 2 v 1 h 1 v 1 h 1 v 1 h 2 v 1 h 1 v 1 h 1 v 1 h 2 v 1 h 1 v 1 h 2 v 1 h 1 v 1 h 1 v 1 h 2 v 1 h 1 v 1 h 1 v 1 h 2 v 1 h 1 v 1 h 2 v 1 h 1 v 1 h 1 v 1 h 2 v 1 h 1 v 1 h 2 v 1 h 1 v 1 h 1 v 1 h 2 v 1 h 1 v 1 h 2 v 1 h 1 v 1 h 1 v 1 h 2 v 1 h 1 v 1 h 2 v 1 h 1 v 1 h 2 v 1 h 1 v 1 h 2 v 1 h 1 v 1 h 2 v 1 h 1 v 1 h 2 v 1 h 1 v 1 h 2 v 1 h 1 v 1 h 2 v 1 h 1 v 1 h 2 v 1 h 1 v 1 h 2 v 1 h 2 v 1 h 1 v 1 h 2 v 1 h 1 v 1 h 2 v 1 h 2 v 1 h 1 v 1 h 2 v 1 h 2 v 1 h 1 v 1 h 2 v 1 h 2 v 1 h 2 v 1 h 1 v 1 h 2 v 1 h 2 v 1 h 2 v 1 h 2 v 1 h 1 v 1 h 2 v 1 h 2 v 1 h 2 v 1 h 2 v 1 h 2 v 1 h 2 v 1 h 2 v 1 h 2 v 1 h 2 v 1 h 3 v 1 h 2 v 1 h 2 v 1 h 2 v 1 h 3 v 1 h 2 v 1 h 3 v 1 h 2 v 1 h 3 v 1 h 2 v 1 h 3 v 1 h 3 v 1 h 3 v 1 h 3 v 1 h 3 v 1 h 3 v 1 h 3 v 1 h 4 v 1 h 3 v 1 h 4 v 1 h 5 v 1 h 4 v 1 h 4 v 1 h 6 v 1 h 5 v 1 h 6 v 1 h 6 v 1 h 8 v 1 h 9 v 1 h 14 v 1 h 39 v -1 h 14 v -1 h 11 v -1 h 8 v -1 h 7 v -1 h 7 v -1 h 6 v -1 h 5 v -1 h 6 v -1 h 5 v -1 h 5 v -1 h 5 v -1 h 5 v -1 h 4 v -1 h 4 v -1 h 5 v -1 h 4 v -1 h 4 v -1 h 4 v -1 h 5 v -1 h 4 v -1 h 4 v -1 h 4 v -1 h 4 v -1 h 3 v -1 h 4 v -1 h 4 v -1 h 4 v -1 h 4 v -1 h 4 v -1 h 4 v -1 h 4 v -1 h 4 v -1 h 3 v -1 h 4 v -1 h 4 v -1 h 4 v -1 h 4 v -1 h 4 v -1 h 4 v -1 h 5 v -1 h 4 v -1 h 4 v -1 h 5 v -1 h 4 v -1 h 5 v -1 h 5 v -1 h 5 v -1 h 6 v -1 h 6 v -1 h 6 v -1 h 6 v -1 h 6 v -1 h 9 v -1 h 8 v -1 h 9 v -1 h 14 v -1 h 14 v -1 h 37 v 1 h 20 v 1 h 10 v 1 h 11 v 1 h 7 v 1 h 6 v 1 h 7 v 1 h 6 v 1 h 5 v 1 h 5 v 1 h 5 v 1 h 5 v 1 h 4 v 1 h 4 v 1 h 4 v 1 h 4 v 1 h 3 v 1 h 4 v 1 h 4 v 1 h 3 v 1 h 3 v 1 h 3 v 1 h 3 v 1 h 4 v 1 h 3 v 1 h 3 v 1 h 2 v 1 h 3 v 1 h 3 v 1 h 2 v 1 h 3 v 1 h 3 v 1 h 2 v 1 h 3 v 1 h 3 v 1 h 2 v 1 h 2 v 1 h 3 v 1 h 2 v 1 h 2 v 1 h 3 v 1 h 2 v 1 h 2 v 1 h 2 v 1 h 3 v 1 h 2 v 1 h 2 v 1 h 2 v 1 h 2 v 1 h 2 v 1 h 2 v 1 h 2 v 1 h 2 v 1 h 2 v 1 h 2 v 1 h 2 v 1 h 2 v 1 h 2 v 1 h 1 v 1 h 2 v 1 h 2 v 1 h 2 v 1 h 2 v 1 h 2 v 1 h 2 v 1 h 1 v 1 h 2 v 1 h 2 v 1 h 1 v 1 h 2 v 1 h 2 v 1 h 2 v 1 h 1 v 1 h 2 v 1 h 2 v 1 h 1 v 1 h 2 v 1 h 2 v 1 h 1 v 1 h 2 v 1 h 1 v 1 h 2 v 1 h 2 v 1 h 1 v 1 h 2 v 1 h 1 v 1 h 2 v 1 h 1 v 1 h 2 v 1 h 2 v 1 h 1 v 1 h 1 v 1 h 2 v 1 h 1 v 1 h 2 v 1 h 1 v 1 h 2 v 1 h 1 v 1 h 2 v 1 h 1 v 1 h 2 v 1 h 1 v 1 h 2 v 1 h 1 v 1 h 1 v 1 h 2 v 1 h 1 v 1 h 2 v 1 h 1 v 1 h 1 v 1 h 2 v 1 h 1 v 1 h 2 v 1 h 1 v 1 h 1 v 1 h 2 v 1 h 1 v 1 h 1 v 1 h 2 v 1 h 1 v 1 h 1 v 1 h 2 v 1 h 1 v 1 h 1 v 1 h 2 v 1 h 1 v 1 h 1 v 1 h 2 v 1 h 1 v 1 h 1 v 1 h 1 v 1 h 2 v 1 h 1 v 1 h 1 v 1 h 2 v 1 h 1 v 1 h 1 v 1 h 1 v 1 h 2 v 1 h 1 v 1 h 1 v 1 h 1 v 1 h 2 v 1 h 1 v 1 h 1 v 1 h 1 v 1 h 2 v 1 h 1 v 1 h 1 v 1 h 1 v 1 h 2 v 1 h 1 v 1 h 1 v 1 h 1 v 1 h 1 v 1 h 2 v 1 h 1 v 1 h 1 v 1 h 1 v 1 h 1 v 1 h 2 v 1 h 1 v 1 h 1 v 1 h 1 v 1 h 1 v 1 h 2 v 1 h 1 v 1 h 1 v 1 h 1 v 1 h 1 v 1 h 1 v 1 h 2 v 1 h 1 v 1 h 1 v 1 h 1 v 1 h 1 v 1 h 1 v 1 h 2 v 1 h 1 v 1 h 1 v 1 h 1 v 1 h 1 v 1 h 1 v 1 h 2 v 1 h 1 v 1 h 1 v 1 h 1 v 1 h 1 v 1 h 1 v 1 h 1 v 1 h 2 v 1 h 1 v 1 h 1 v 1 h 1 v 1 h 1 v 1 h 1 v 1 h 1 v 1 h 2 v 1 h 1 v 1 h 1 v 1 h 1 v 1 h 1 v 1 h 1 v 1 h 1 v 1 h 1 v 1 h 2 v 1 h 1 v 1 h 1 v 1 h 1 v 1 h 1 v 1 h 1 v 1 h 1 v 1 h 1 v 1 h 2 v 1 h 1 v 1 h 1 v 1 h 1 v 1 h 1 v 1 h 1 v 1 h 1 v 1 h 1 v 1 h 1 v 1 h 2 v 1 h 1 v 1 h 1 v 1 h 1 v 1 h 1 v 1 h 1 v 1 h 1 v 1 h 1 v 1 h 1 v 1 h 2 v 1 h 1 v 1 h 1 v 1 h 1 v 1 h 1 v 1 h 1 v 1 h 1 v 1 h 1 v 1 h 1 v 1 h 1 v 1 h 2 v 1 h 1 v 1 h 1 v 1 h 1 v 1 h 1 v 1 h 1 v 1 h 1 v 1 h 1 v 1 h 1 v 1 h 1 v 1 h 2 v 1 h 1 v 1 h 1 v 1 h 1 v 1 h 1 v 1 h 1 v 1 h 1 v 1 h 1 v 1 h 1 v 1 h 1 v 1 h 2 v 1 h 1 v 1 h 1 v 1 h 1 v 1 h 1 v 1 h 1 v 1 h 1 v 1 h 1 v 1 h 1 v 1 h 1 v 1 h 2 v 1 h 1 v 1 h 1 v 1 h 1 v 1 h 1 v 1 h 1 v 1 h 1 v 1 h 1 v 1 h 1 v 1 h 1 v 1 h 2 v 1 h 1 v 1 h 1 v 1 h 1 v 1 h 1 v 1 h 1 v 1 h 1 v 1 h 1 v 1 h 1 v 1 h 2 v 1 h 1 v 1 h 1 v 1 h 1 v 1 h 1 v 1 h 1 v 1 h 1 v 1 h 1 v 1 h 2 v 1 h 1 v 1 h 1 v 1 h 1 v 1 h 1 v 1 h 1 v 1 h 1 v 1 h 1 v 1 h 2 v 1 h 1 v 1 h 1 v 1 h 1 v 1 h 1 v 1 h 1 v 1 h 1 v 1 h 1 v 1 h 2 v 1 h 1 v 1 h 1 v 1 h 1 v 1 h 1 v 1 h 1 v 1 h 1 v 1 h 1 v 1 h 2 v 1 h 1 v 1 h 1 v 1 h 1 v 1 h 1 v 1 h 1 v 1 h 2 v 1 h 1 v 1 h 1 v 1 h 1 v 1 h 1 v 1 h 1 v 1 h 1 v 1 h 2 v 1 h 1 v 1 h 1 v 1 h 1 v 1 h 1 v 1 h 1 v 1 h 2 v 1 h 1 v 1 h 1 v 1 h 1 v 1 h 1 v 1 h 2 v 1 h 1 v 1 h 1 v 1 h 1 v 1 h 2 v 1 h 1 v 1 h 1 v 1 h 1 v 1 h 1 v 1 h 2 v 1 h 1 v 1 h 1 v 1 h 1 v 1 h 2 v 1 h 1 v 1 h 1 v 1 h 1 v 1 h 2 v 1 h 1 v 1 h 1 v 1 h 1 v 1 h 2 v 1 h 1 v 1 h 2 v 1 h 1 v 1 h 1 v 1 h 2 v 1 h 1 v 1 h 1 v 1 h 2 v 1 h 1 v 1 h 1 v 1 h 2 v 1 h 1 v 1 h 1 v 1 h 2 v 1 h 1 v 1 h 1 v 1 h 2 v 1 h 1 v 1 h 1 v 1 h 2 v 1 h 1 v 1 h 1 v 1 h 2 v 1 h 1 v 1 h 2 v 1 h 1 v 1 h 2 v 1 h 1 v 1 h 2 v 1 h 1 v 1 h 2 v 1 h 1 v 1 h 2 v 1 h 1 v 1 h 2 v 1 h 1 v 1 h 2 v 1 h 1 v 1 h 1 v 1 h 2 v 1 h 1 v 1 h 2 v 1 h 1 v 1 h 2 v 1 h 2 v 1 h 1 v 1 h 2 v 1 h 2 v 1 h 1 v 1 h 2 v 1 h 2 v 1 h 1 v 1 h 2 v 1 h 1 v 1 h 2 v 1 h 2 v 1 h 1 v 1 h 2 v 1 h 2 v 1 h 1 v 1 h 2 v 1 h 2 v 1 h 1 v 1 h 2 v 1 h 2 v 1 h 2 v 1 h 2 v 1 h 1 v 1 h 2 v 1 h 2 v 1 h 2 v 1 h 2 v 1 h 2 v 1 h 2 v 1 h 1 v 1 h 2 v 1 h 2 v 1 h 2 v 1 h 2 v 1 h 2 v 1 h 2 v 1 h 1 v 1 h 3 v 1 h 2 v 1 h 2 v 1 h 2 v 1 h 2 v 1 h 2 v 1 h 2 v 1 h 2 v 1 h 3 v 1 h 2 v 1 h 2 v 1 h 2 v 1 h 2 v 1 h 2 v 1 h 2 v 1 h 2 v 1 h 3 v 1 h 2 v 1 h 2 v 1 h 3 v 1 h 2 v 1 h 3 v 1 h 2 v 1 h 3 v 1 h 2 v 1 h 3 v 1 h 2 v 1 h 3 v 1 h 2 v 1 h 3 v 1 h 2 v 1 h 3 v 1 h 2 v 1 h 3 v 1 h 3 v 1 h 3 v 1 h 3 v 1 h 3 v 1 h 2 v 1 h 3 v 1 h 3 v 1 h 3 v 1 h 3 v 1 h 3 v 1 h 4 v 1 h 3 v 1 h 3 v 1 h 3 v 1 h 4 v 1 h 4 v 1 h 4 v 1 h 4 v 1 h 4 v 1 h 3 v 1 h 4 v 1 h 5 v 1 h 5 v 1 h 6 v 1 h 5 v 1 h 5 v 1 h 6 v 1 h 5 v 1 h 10 v 1 h 10 v 1 h 10 v 1 h 39 v -1 h 10 v -1 h 9 v -1 h 9 v -1 h 4 v -1 h 5 v -1 h 4 v -1 h 5 v -1 h 4 v -1 h 5 v -1 h 3 v -1 h 3 v -1 h 3 v -1 h 3 v -1 h 3 v -1 h 3 v -1 h 3 v -1 h 3 v -1 h 3 v -1 h 3 v -1 h 2 v -1 h 2 v -1 h 1 V 524"
             style="fill:url(#linearGradient900);fill-opacity:1;fill-rule:nonzero;stroke:none"
             id="path902" /></g></g></g><g
       id="g904"
       transform="scale(0.1)"><g
         id="g906"
         clip-path="url(#clipPath910)"><g
           id="g912"
           clip-path="url(#clipPath916)"><path
             d="m 552,524 v 1306 h 1 v 1 h 3 v 1 h 2 v 1 h 2 v 1 h 2 v 1 h 2 v 1 h 2 v 1 h 3 v 1 h 2 v 1 h 2 v 1 h 2 v 1 h 2 v 1 h 2 v 1 h 3 v 1 h 2 v 1 h 2 v 1 h 2 v 1 h 2 v 1 h 2 v 1 h 3 v 1 h 2 v 1 h 2 v 1 h 2 v 1 h 2 v 1 h 3 v 1 h 2 v 1 h 2 v 1 h 2 v 1 h 2 v 1 h 3 v 1 h 2 v 1 h 2 v 1 h 2 v 1 h 3 v 1 h 2 v 1 h 2 v 1 h 3 v 1 h 2 v 1 h 2 v 1 h 2 v 1 h 3 v 1 h 2 v 1 h 3 v 1 h 2 v 1 h 3 v 1 h 2 v 1 h 3 v 1 h 2 v 1 h 2 v 1 h 3 v 1 h 2 v 1 h 3 v 1 h 2 v 1 h 3 v 1 h 3 v 1 h 3 v 1 h 2 v 1 h 3 v 1 h 3 v 1 h 3 v 1 h 3 v 1 h 3 v 1 h 2 v 1 h 3 v 1 h 3 v 1 h 4 v 1 h 3 v 1 h 4 v 1 h 3 v 1 h 4 v 1 h 3 v 1 h 4 v 1 h 3 v 1 h 4 v 1 h 5 v 1 h 5 v 1 h 4 v 1 h 5 v 1 h 4 v 1 h 6 v 1 h 7 v 1 h 8 v 1 h 8 v 1 h 9 v 1 h 20 v 1 h 5 v -1 h 24 v -1 h 9 v -1 h 9 v -1 h 6 v -1 h 5 v -1 h 6 v -1 h 4 v -1 h 5 v -1 h 4 v -1 h 4 v -1 h 3 v -1 h 4 v -1 h 3 v -1 h 3 v -1 h 4 v -1 h 2 v -1 h 3 v -1 h 3 v -1 h 3 v -1 h 3 v -1 h 2 v -1 h 3 v -1 h 2 v -1 h 3 v -1 h 2 v -1 h 3 v -1 h 2 v -1 h 2 v -1 h 2 v -1 h 2 v -1 h 3 v -1 h 2 v -1 h 2 v -1 h 2 v -1 h 2 v -1 h 2 v -1 h 2 v -1 h 2 v -1 h 2 v -1 h 2 v -1 h 2 v -1 h 2 v -1 h 2 v -1 h 2 v -1 h 2 v -1 h 1 v -1 h 2 v -1 h 2 v -1 h 2 v -1 h 2 v -1 h 2 v -1 h 1 v -1 h 2 v -1 h 2 v -1 h 2 v -1 h 2 v -1 h 1 v -1 h 2 v -1 h 2 v -1 h 2 v -1 h 1 v -1 h 2 v -1 h 2 v -1 h 2 v -1 h 1 v -1 h 2 v -1 h 2 v -1 h 2 v -1 h 1 v -1 h 2 v -1 h 2 v -1 h 2 v -1 h 1 v -1 h 2 v -1 h 2 v -1 h 1 v -1 h 2 v -1 h 2 v -1 h 2 v -1 h 1 v -1 h 2 v -1 h 2 v -1 h 2 v -1 h 2 v -1 h 1 v -1 h 2 v -1 h 2 v -1 h 2 v -1 h 1 v -1 h 2 v -1 h 2 v -1 h 2 v -1 h 2 v -1 h 1 v -1 h 2 v -1 h 2 v -1 h 2 v -1 h 2 v -1 h 2 v -1 h 2 v -1 h 2 v -1 h 1 v -1 h 2 v -1 h 2 v -1 h 2 v -1 h 3 v -1 h 2 v -1 h 2 v -1 h 2 v -1 h 2 v -1 h 2 v -1 h 2 v -1 h 2 v -1 h 2 v -1 h 3 v -1 h 2 v -1 h 2 v -1 h 2 v -1 h 2 v -1 h 3 v -1 h 2 v -1 h 3 v -1 h 2 v -1 h 3 v -1 h 2 v -1 h 3 v -1 h 2 v -1 h 3 v -1 h 2 v -1 h 3 v -1 h 2 v -1 h 3 v -1 h 2 v -1 h 3 v -1 h 3 v -1 h 3 v -1 h 3 v -1 h 3 v -1 h 3 v -1 h 3 v -1 h 4 v -1 h 3 v -1 h 3 v -1 h 3 v -1 h 3 v -1 h 3 v -1 h 4 v -1 h 3 v -1 h 4 v -1 h 5 v -1 h 4 v -1 h 4 v -1 h 4 v -1 h 5 v -1 h 4 v -1 h 4 v -1 h 4 v -1 h 6 v -1 h 6 v -1 h 6 v -1 h 6 v -1 h 7 v -1 h 6 v -1 h 6 v -1 h 11 v -1 h 11 v -1 h 10 v -1 h 17 v -1 h 31 v -1 h 1 v 1 h 40 v 1 h 14 v 1 h 14 v 1 h 13 v 1 h 9 v 1 h 9 v 1 h 9 v 1 h 8 v 1 h 8 v 1 h 7 v 1 h 7 v 1 h 6 v 1 h 7 v 1 h 7 v 1 h 6 v 1 h 6 v 1 h 6 v 1 h 5 v 1 h 6 v 1 h 6 v 1 h 5 v 1 h 6 v 1 h 5 v 1 h 5 v 1 h 5 v 1 h 6 v 1 h 5 v 1 h 5 v 1 h 5 v 1 h 5 v 1 h 5 v 1 h 5 v 1 h 4 v 1 h 5 v 1 h 5 v 1 h 5 v 1 h 4 v 1 h 5 v 1 h 5 v 1 h 4 v 1 h 5 v 1 h 5 v 1 h 4 v 1 h 5 v 1 h 4 v 1 h 5 v 1 h 5 v 1 h 4 v 1 h 5 v 1 h 4 v 1 h 5 v 1 h 5 v 1 h 4 v 1 h 5 v 1 h 4 v 1 h 5 v 1 h 5 v 1 h 4 v 1 h 5 v 1 h 4 v 1 h 5 v 1 h 5 v 1 h 5 v 1 h 4 v 1 h 5 v 1 h 5 v 1 h 5 v 1 h 4 v 1 h 5 v 1 h 5 v 1 h 5 v 1 h 5 v 1 h 5 v 1 h 5 v 1 h 6 v 1 h 5 v 1 h 5 v 1 h 5 v 1 h 6 v 1 h 6 v 1 h 5 v 1 h 6 v 1 h 6 v 1 h 6 v 1 h 6 v 1 h 7 v 1 h 6 v 1 h 7 v 1 h 8 v 1 h 7 v 1 h 8 v 1 h 9 v 1 h 9 v 1 h 10 v 1 h 12 v 1 h 16 v 1 h 24 v 1 h 36 v -1 h 22 v -1 h 14 v -1 h 10 v -1 h 8 v -1 h 8 v -1 h 8 v -1 h 5 v -1 h 6 v -1 h 5 v -1 h 6 v -1 h 5 v -1 h 5 v -1 h 4 v -1 h 4 v -1 h 4 v -1 h 4 v -1 h 4 v -1 h 4 v -1 h 3 v -1 h 4 v -1 h 3 v -1 h 3 v -1 h 3 v -1 h 3 v -1 h 3 v -1 h 3 v -1 h 4 v -1 h 3 v -1 h 2 v -1 h 3 v -1 h 2 v -1 h 3 v -1 h 3 v -1 h 2 v -1 h 3 v -1 h 3 v -1 h 2 v -1 h 2 v -1 h 3 v -1 h 2 v -1 h 2 v -1 h 2 v -1 h 3 v -1 h 2 v -1 h 2 v -1 h 2 v -1 h 2 v -1 h 2 v -1 h 2 v -1 h 2 v -1 h 2 v -1 h 2 v -1 h 2 v -1 h 2 v -1 h 2 v -1 h 2 v -1 h 2 v -1 h 2 v -1 h 1 v -1 h 2 v -1 h 2 v -1 h 2 v -1 h 2 v -1 h 2 v -1 h 1 v -1 h 2 v -1 h 2 v -1 h 2 v -1 h 2 v -1 h 1 v -1 h 2 v -1 h 2 v -1 h 1 v -1 h 2 v -1 h 2 v -1 h 1 v -1 h 2 v -1 h 2 v -1 h 1 v -1 h 2 v -1 h 2 v -1 h 1 v -1 h 2 v -1 h 1 v -1 h 2 v -1 h 2 v -1 h 1 v -1 h 2 v -1 h 1 v -1 h 2 v -1 h 1 v -1 h 2 v -1 h 2 v -1 h 1 v -1 h 2 v -1 h 1 v -1 h 2 v -1 h 1 v -1 h 2 v -1 h 1 v -1 h 2 v -1 h 1 v -1 h 2 v -1 h 1 v -1 h 2 v -1 h 1 v -1 h 2 v -1 h 1 v -1 h 2 v -1 h 1 v -1 h 2 v -1 h 1 v -1 h 2 v -1 h 1 v -1 h 1 v -1 h 2 v -1 h 1 v -1 h 2 v -1 h 1 v -1 h 2 v -1 h 1 v -1 h 2 v -1 h 1 v -1 h 2 v -1 h 1 v -1 h 2 v -1 h 1 v -1 h 1 v -1 h 2 v -1 h 1 v -1 h 2 v -1 h 1 v -1 h 2 v -1 h 1 v -1 h 2 v -1 h 1 v -1 h 1 v -1 h 2 v -1 h 1 v -1 h 2 v -1 h 1 v -1 h 2 v -1 h 1 v -1 h 2 v -1 h 1 v -1 h 2 v -1 h 1 v -1 h 2 v -1 h 1 v -1 h 1 v -1 h 2 v -1 h 1 v -1 h 2 v -1 h 1 v -1 h 2 v -1 h 1 v -1 h 2 v -1 h 1 v -1 h 2 v -1 h 1 v -1 h 2 v -1 h 1 v -1 h 2 v -1 h 1 v -1 h 2 v -1 h 1 v -1 h 2 v -1 h 1 v -1 h 2 v -1 h 2 v -1 h 1 v -1 h 2 v -1 h 1 v -1 h 2 v -1 h 1 v -1 h 2 v -1 h 1 v -1 h 2 v -1 h 2 v -1 h 1 v -1 h 2 v -1 h 1 v -1 h 2 v -1 h 2 v -1 h 1 v -1 h 2 v -1 h 1 v -1 h 2 v -1 h 2 v -1 h 1 v -1 h 2 v -1 h 2 v -1 h 2 v -1 h 2 v -1 h 2 v -1 h 2 v -1 h 2 v -1 h 1 v -1 h 2 v -1 h 2 v -1 h 2 v -1 h 2 v -1 h 2 v -1 h 2 v -1 h 2 v -1 h 1 v -1 h 2 v -1 h 2 v -1 h 2 v -1 h 2 v -1 h 2 v -1 h 2 v -1 h 2 v -1 h 3 v -1 h 2 v -1 h 2 v -1 h 3 v -1 h 2 v -1 h 2 v -1 h 2 v -1 h 3 v -1 h 2 v -1 h 2 v -1 h 3 v -1 h 2 v -1 h 2 v -1 h 3 v -1 h 2 v -1 h 2 v -1 h 2 v -1 h 3 v -1 h 2 v -1 h 2 v -1 h 3 v -1 h 2 v -1 h 3 v -1 h 3 v -1 h 3 v -1 h 3 v -1 h 3 v -1 h 3 v -1 h 3 v -1 h 3 v -1 h 3 v -1 h 3 v -1 h 3 v -1 h 3 v -1 h 3 v -1 h 3 v -1 h 4 v -1 h 3 v -1 h 3 v -1 h 3 v -1 h 3 v -1 h 5 v -1 h 4 v -1 h 4 v -1 h 4 v -1 h 5 v -1 h 4 v -1 h 4 v -1 h 4 v -1 h 4 v -1 h 5 v -1 h 4 v -1 h 4 v -1 h 5 v -1 h 6 v -1 h 7 v -1 h 6 v -1 h 6 v -1 h 7 v -1 h 6 v -1 h 6 v -1 h 7 v -1 h 7 v -1 h 12 v -1 h 11 v -1 h 12 v -1 h 12 v -1 h 16 v -1 h 38 v -1 h 29 v 1 h 41 v 1 h 17 v 1 h 15 v 1 h 15 v 1 h 15 v 1 h 10 v 1 h 10 v 1 h 10 v 1 h 10 v 1 h 10 v 1 h 10 v 1 h 8 v 1 h 9 v 1 h 8 v 1 h 8 v 1 h 8 v 1 h 8 v 1 h 8 v 1 h 6 V 524"
             style="fill:url(#linearGradient922);fill-opacity:1;fill-rule:nonzero;stroke:none"
             id="path924" /></g></g></g><g
       id="g926"
       transform="scale(0.1)"><g
         id="g928"
         clip-path="url(#clipPath932)"><path
           d="m 552,524 h 2538 v 831 H 552 Z"
           style="fill:url(#linearGradient938);fill-opacity:1;fill-rule:nonzero;stroke:none"
           id="path940" /></g></g><g
       id="g942"
       transform="scale(0.1)"><g
         id="g944"
         clip-path="url(#clipPath948)"><g
           id="g950"
           clip-path="url(#clipPath954)"><path
             d="m 1075,524 v 1 h 2 v 1 h 1 v 1 h 2 v 1 h 1 v 1 h 2 v 1 h 1 v 1 h 2 v 1 h 1 v 1 h 2 v 1 h 1 v 1 h 2 v 1 h 1 v 1 h 1 v 1 h 2 v 1 h 1 v 1 h 2 v 1 h 1 v 1 h 2 v 1 h 1 v 1 h 2 v 1 h 1 v 1 h 1 v 1 h 2 v 1 h 1 v 1 h 2 v 1 h 1 v 1 h 1 v 1 h 2 v 1 h 1 v 1 h 2 v 1 h 1 v 1 h 1 v 1 h 2 v 1 h 1 v 1 h 1 v 1 h 2 v 1 h 1 v 1 h 2 v 1 h 1 v 1 h 1 v 1 h 2 v 1 h 1 v 1 h 1 v 1 h 2 v 1 h 1 v 1 h 1 v 1 h 2 v 1 h 1 v 1 h 1 v 1 h 2 v 1 h 1 v 1 h 1 v 1 h 2 v 1 h 1 v 1 h 1 v 1 h 1 v 1 h 2 v 1 h 1 v 1 h 1 v 1 h 2 v 1 h 1 v 1 h 1 v 1 h 1 v 1 h 2 v 1 h 1 v 1 h 1 v 1 h 2 v 1 h 1 v 1 h 1 v 1 h 1 v 1 h 2 v 1 h 1 v 1 h 1 v 1 h 1 v 1 h 2 v 1 h 1 v 1 h 1 v 1 h 1 v 1 h 2 v 1 h 1 v 1 h 1 v 1 h 1 v 1 h 2 v 1 h 1 v 1 h 1 v 1 h 1 v 1 h 1 v 1 h 2 v 1 h 1 v 1 h 1 v 1 h 1 v 1 h 2 v 1 h 1 v 1 h 1 v 1 h 1 v 1 h 1 v 1 h 2 v 1 h 1 v 1 h 1 v 1 h 1 v 1 h 1 v 1 h 2 v 1 h 1 v 1 h 1 v 1 h 1 v 1 h 1 v 1 h 2 v 1 h 1 v 1 h 1 v 1 h 1 v 1 h 1 v 1 h 1 v 1 h 2 v 1 h 1 v 1 h 1 v 1 h 1 v 1 h 1 v 1 h 1 v 1 h 2 v 1 h 1 v 1 h 1 v 1 h 1 v 1 h 1 v 1 h 1 v 1 h 2 v 1 h 1 v 1 h 1 v 1 h 1 v 1 h 1 v 1 h 1 v 1 h 2 v 1 h 1 v 1 h 1 v 1 h 1 v 1 h 1 v 1 h 1 v 1 h 1 v 1 h 1 v 1 h 2 v 1 h 1 v 1 h 1 v 1 h 1 v 1 h 1 v 1 h 1 v 1 h 1 v 1 h 2 v 1 h 1 v 1 h 1 v 1 h 1 v 1 h 1 v 1 h 1 v 1 h 1 v 1 h 1 v 1 h 1 v 1 h 2 v 1 h 1 v 1 h 1 v 1 h 1 v 1 h 1 v 1 h 1 v 1 h 1 v 1 h 1 v 1 h 1 v 1 h 1 v 1 h 2 v 1 h 1 v 1 h 1 v 1 h 1 v 1 h 1 v 1 h 1 v 1 h 1 v 1 h 1 v 1 h 1 v 1 h 1 v 1 h 1 v 1 h 2 v 1 h 1 v 1 h 1 v 1 h 1 v 1 h 1 v 1 h 1 v 1 h 1 v 1 h 1 v 1 h 1 v 1 h 1 v 1 h 1 v 1 h 1 v 1 h 1 v 1 h 2 v 1 h 1 v 1 h 1 v 1 h 1 v 1 h 1 v 1 h 1 v 1 h 1 v 1 h 1 v 1 h 1 v 1 h 1 v 1 h 1 v 1 h 1 v 1 h 1 v 1 h 1 v 1 h 1 v 1 h 1 v 1 h 2 v 1 h 1 v 1 h 1 v 1 h 1 v 1 h 1 v 1 h 1 v 1 h 1 v 1 h 1 v 1 h 1 v 1 h 1 v 1 h 1 v 1 h 1 v 1 h 1 v 1 h 1 v 1 h 1 v 1 h 1 v 1 h 1 v 1 h 1 v 1 h 1 v 1 h 1 v 1 h 1 v 1 h 2 v 1 h 1 v 1 h 1 v 1 h 1 v 1 h 1 v 1 h 1 v 1 h 1 v 1 h 1 v 1 h 1 v 1 h 1 v 1 h 1 v 1 h 1 v 1 h 1 v 1 h 1 v 1 h 1 v 1 h 1 v 1 h 1 v 1 h 1 v 1 h 1 v 1 h 1 v 1 h 1 v 1 h 1 v 1 h 1 v 1 h 1 v 1 h 1 v 1 h 1 v 1 h 1 v 1 h 1 v 1 h 1 v 1 h 1 v 1 h 1 v 1 h 1 v 1 h 1 v 1 h 1 v 1 h 1 v 1 h 1 v 1 h 2 v 1 h 1 v 1 h 1 v 1 h 1 v 1 h 1 v 1 h 1 v 1 h 1 v 1 h 1 v 1 h 1 v 1 h 1 v 1 h 1 v 1 h 1 v 1 h 1 v 1 h 1 v 1 h 1 v 1 h 1 v 1 h 1 v 1 h 1 v 1 h 1 v 1 h 1 v 1 h 1 v 1 h 1 v 1 h 1 v 1 h 1 v 1 h 1 v 1 h 1 v 1 h 1 v 1 h 2 v 1 h 1 v 1 h 1 v 1 h 1 v 1 h 1 v 1 h 1 v 1 h 1 v 1 h 1 v 1 h 1 v 1 h 1 v 1 h 1 v 1 h 1 v 1 h 2 v 1 h 1 v 1 h 1 v 1 h 1 v 1 h 1 v 1 h 1 v 1 h 1 v 1 h 1 v 1 h 1 v 1 h 1 v 1 h 1 v 1 h 2 v 1 h 1 v 1 h 1 v 1 h 1 v 1 h 1 v 1 h 1 v 1 h 1 v 1 h 2 v 1 h 1 v 1 h 1 v 1 h 1 v 1 h 1 v 1 h 1 v 1 h 1 v 1 h 2 v 1 h 1 v 1 h 1 v 1 h 1 v 1 h 1 v 1 h 2 v 1 h 1 v 1 h 1 v 1 h 1 v 1 h 1 v 1 h 2 v 1 h 1 v 1 h 1 v 1 h 1 v 1 h 1 v 1 h 2 v 1 h 1 v 1 h 1 v 1 h 1 v 1 h 1 v 1 h 2 v 1 h 1 v 1 h 1 v 1 h 2 v 1 h 1 v 1 h 1 v 1 h 2 v 1 h 1 v 1 h 1 v 1 h 1 v 1 h 2 v 1 h 1 v 1 h 1 v 1 h 2 v 1 h 1 v 1 h 1 v 1 h 2 v 1 h 1 v 1 h 1 v 1 h 2 v 1 h 1 v 1 h 2 v 1 h 1 v 1 h 2 v 1 h 1 v 1 h 1 v 1 h 2 v 1 h 1 v 1 h 2 v 1 h 1 v 1 h 2 v 1 h 1 v 1 h 1 v 1 h 2 v 1 h 2 v 1 h 1 v 1 h 2 v 1 h 1 v 1 h 2 v 1 h 2 v 1 h 1 v 1 h 2 v 1 h 1 v 1 h 2 v 1 h 1 v 1 h 2 v 1 h 2 v 1 h 1 v 1 h 2 v 1 h 2 v 1 h 2 v 1 h 2 v 1 h 1 v 1 h 2 v 1 h 2 v 1 h 2 v 1 h 2 v 1 h 1 v 1 h 2 v 1 h 2 v 1 h 2 v 1 h 2 v 1 h 2 v 1 h 2 v 1 h 2 v 1 h 2 v 1 h 2 v 1 h 2 v 1 h 2 v 1 h 2 v 1 h 2 v 1 h 3 v 1 h 2 v 1 h 2 v 1 h 3 v 1 h 2 v 1 h 3 v 1 h 2 v 1 h 3 v 1 h 2 v 1 h 2 v 1 h 3 v 1 h 3 v 1 h 3 v 1 h 3 v 1 h 2 v 1 h 3 v 1 h 3 v 1 h 3 v 1 h 3 v 1 h 3 v 1 h 4 v 1 h 4 v 1 h 3 v 1 h 4 v 1 h 3 v 1 h 4 v 1 h 4 v 1 h 4 v 1 h 5 v 1 h 5 v 1 h 5 v 1 h 4 v 1 h 5 v 1 h 7 v 1 h 6 v 1 h 7 v 1 h 6 v 1 h 9 v 1 h 10 v 1 h 10 v 1 h 16 v 1 h 23 v 1 h 24 v -1 h 31 v -1 h 17 v -1 h 16 v -1 h 10 v -1 h 10 v -1 h 10 v -1 h 9 v -1 h 10 v -1 h 7 v -1 h 7 v -1 h 7 v -1 h 8 v -1 h 7 v -1 h 7 v -1 h 7 v -1 h 6 v -1 h 7 v -1 h 6 v -1 h 6 v -1 h 7 v -1 h 6 v -1 h 6 v -1 h 6 v -1 h 6 v -1 h 6 v -1 h 6 v -1 h 6 v -1 h 6 v -1 h 6 v -1 h 6 v -1 h 7 v -1 h 6 v -1 h 6 v -1 h 6 v -1 h 6 v -1 h 6 v -1 h 6 v -1 h 7 v -1 h 7 v -1 h 7 v -1 h 6 v -1 h 7 v -1 h 7 v -1 h 7 v -1 h 8 v -1 h 8 v -1 h 8 v -1 h 8 v -1 h 8 v -1 h 12 v -1 h 11 v -1 h 12 v -1 h 12 v -1 h 27 v -1 h 43 v 1 h 25 v 1 h 10 v 1 h 9 v 1 h 10 v 1 h 10 v 1 h 6 v 1 h 5 v 1 h 6 v 1 h 5 v 1 h 5 v 1 h 5 v 1 h 6 v 1 h 5 v 1 h 5 v 1 h 3 v 1 h 3 v 1 h 4 v 1 h 3 v 1 h 4 v 1 h 3 v 1 h 4 v 1 h 3 v 1 h 4 v 1 h 3 v 1 h 4 v 1 h 3 v 1 h 3 v 1 h 3 v 1 h 2 v 1 h 3 v 1 h 2 v 1 h 3 v 1 h 3 v 1 h 2 v 1 h 3 v 1 h 2 v 1 h 3 v 1 h 3 v 1 h 2 v 1 h 3 v 1 h 2 v 1 h 2 v 1 h 2 v 1 h 2 v 1 h 2 v 1 h 2 v 1 h 3 v 1 h 2 v 1 h 2 v 1 h 2 v 1 h 2 v 1 h 1 v 1 h 2 v 1 h 2 v 1 h 2 v 1 h 2 v 1 h 1 v 1 h 2 v 1 h 2 v 1 h 2 v 1 h 2 v 1 h 1 v 1 h 2 v 1 h 2 v 1 h 2 v 1 h 1 v 1 h 2 v 1 h 1 v 1 h 2 v 1 h 2 v 1 h 1 v 1 h 2 v 1 h 1 v 1 h 2 v 1 h 1 v 1 h 2 v 1 h 1 v 1 h 2 v 1 h 1 v 1 h 2 v 1 h 2 v 1 h 1 v 1 h 2 v 1 h 1 v 1 h 2 v 1 h 1 v 1 h 2 v 1 h 1 v 1 h 2 v 1 h 1 v 1 h 2 v 1 h 1 v 1 h 1 v 1 h 2 v 1 h 1 v 1 h 2 v 1 h 1 v 1 h 1 v 1 h 2 v 1 h 1 v 1 h 2 v 1 h 1 v 1 h 1 v 1 h 2 v 1 h 1 v 1 h 1 v 1 h 2 v 1 h 1 v 1 h 2 v 1 h 1 v 1 h 1 v 1 h 2 v 1 h 1 v 1 h 1 v 1 h 2 v 1 h 1 v 1 h 2 v 1 h 1 v 1 h 1 v 1 h 1 v 1 h 2 v 1 h 1 v 1 h 1 v 1 h 2 v 1 h 1 v 1 h 1 v 1 h 2 v 1 h 1 v 1 h 1 v 1 h 2 v 1 h 1 v 1 h 1 v 1 h 2 v 1 h 1 v 1 h 1 v 1 h 2 v 1 h 1 v 1 h 1 v 1 h 1 v 1 h 2 v 1 h 1 v 1 h 1 v 1 h 2 v 1 h 1 v 1 h 1 v 1 h 2 v 1 h 1 v 1 h 1 v 1 h 2 v 1 h 1 v 1 h 1 v 1 h 2 v 1 h 1 v 1 h 1 v 1 h 2 v 1 h 1 v 1 h 1 v 1 h 2 v 1 h 1 v 1 h 2 v 1 h 1 v 1 h 1 v 1 h 2 v 1 h 1 v 1 h 1 v 1 h 2 v 1 h 1 v 1 h 1 v 1 h 2 v 1 h 1 v 1 h 1 v 1 h 2 v 1 h 1 v 1 h 2 v 1 h 1 v 1 h 2 v 1 h 1 v 1 h 1 v 1 h 2 v 1 h 1 v 1 h 2 v 1 h 1 v 1 h 2 v 1 h 1 v 1 h 2 v 1 h 1 v 1 h 1 v 1 h 2 v 1 h 1 v 1 h 2 v 1 h 1 v 1 h 2 v 1 h 1 v 1 h 2 v 1 h 1 v 1 h 2 v 1 h 1 v 1 h 2 v 1 h 2 v 1 h 1 v 1 h 2 v 1 h 2 v 1 h 1 v 1 h 2 v 1 h 2 v 1 h 1 v 1 h 2 v 1 h 2 v 1 h 1 v 1 h 2 v 1 h 2 v 1 h 2 v 1 h 1 v 1 h 2 v 1 h 2 v 1 h 1 v 1 h 2 v 1 h 2 v 1 h 1 v 1 h 2 v 1 h 2 v 1 h 3 v 1 h 2 v 1 h 2 v 1 h 2 v 1 h 2 v 1 h 2 v 1 h 2 v 1 h 2 v 1 h 2 v 1 h 2 v 1 h 2 v 1 h 2 v 1 h 2 v 1 h 3 v 1 h 2 v 1 h 3 v 1 h 3 v 1 h 2 v 1 h 3 v 1 h 2 v 1 h 3 v 1 h 4 v 1 h 3 v 1 h 3 v 1 h 3 v 1 h 4 v 1 h 3 v 1 h 4 v 1 h 4 v 1 h 5 v 1 h 4 v 1 h 5 v 1 h 4 v 1 h 5 v 1 h 4 v 1 h 7 v 1 h 7 v 1 h 8 v 1 h 7 v 1 h 8 v 1 h 16 v 1 h 17 v 1 h 46 v -1 h 19 v -1 h 18 v -1 h 10 v -1 h 11 v -1 h 11 v -1 h 9 v -1 h 8 v -1 h 4 V 524"
             style="fill:url(#linearGradient960);fill-opacity:1;fill-rule:nonzero;stroke:none"
             id="path962" /></g></g></g><g
       id="g964"
       transform="scale(0.1)"><g
         id="g966"
         clip-path="url(#clipPath970)"><g
           id="g972"
           clip-path="url(#clipPath976)"><path
             d="m 1514,524 v 1 h 1 v 1 h 2 v 1 h 1 v 1 h 1 v 1 h 2 v 1 h 1 v 1 h 1 v 1 h 1 v 1 h 2 v 1 h 1 v 1 h 1 v 1 h 1 v 1 h 2 v 1 h 1 v 1 h 1 v 1 h 1 v 1 h 2 v 1 h 1 v 1 h 1 v 1 h 2 v 1 h 1 v 1 h 1 v 1 h 1 v 1 h 2 v 1 h 1 v 1 h 1 v 1 h 1 v 1 h 2 v 1 h 1 v 1 h 1 v 1 h 1 v 1 h 2 v 1 h 1 v 1 h 1 v 1 h 2 v 1 h 1 v 1 h 1 v 1 h 1 v 1 h 2 v 1 h 1 v 1 h 1 v 1 h 1 v 1 h 2 v 1 h 1 v 1 h 1 v 1 h 1 v 1 h 2 v 1 h 1 v 1 h 1 v 1 h 2 v 1 h 1 v 1 h 1 v 1 h 1 v 1 h 2 v 1 h 1 v 1 h 1 v 1 h 2 v 1 h 1 v 1 h 1 v 1 h 1 v 1 h 2 v 1 h 1 v 1 h 1 v 1 h 2 v 1 h 1 v 1 h 1 v 1 h 1 v 1 h 2 v 1 h 1 v 1 h 1 v 1 h 2 v 1 h 1 v 1 h 1 v 1 h 2 v 1 h 1 v 1 h 1 v 1 h 2 v 1 h 1 v 1 h 1 v 1 h 1 v 1 h 2 v 1 h 1 v 1 h 1 v 1 h 2 v 1 h 1 v 1 h 1 v 1 h 2 v 1 h 1 v 1 h 2 v 1 h 1 v 1 h 1 v 1 h 2 v 1 h 1 v 1 h 1 v 1 h 2 v 1 h 1 v 1 h 1 v 1 h 2 v 1 h 1 v 1 h 1 v 1 h 2 v 1 h 1 v 1 h 2 v 1 h 1 v 1 h 1 v 1 h 2 v 1 h 1 v 1 h 2 v 1 h 1 v 1 h 2 v 1 h 1 v 1 h 1 v 1 h 2 v 1 h 1 v 1 h 2 v 1 h 1 v 1 h 1 v 1 h 2 v 1 h 1 v 1 h 2 v 1 h 1 v 1 h 2 v 1 h 1 v 1 h 2 v 1 h 1 v 1 h 2 v 1 h 1 v 1 h 2 v 1 h 1 v 1 h 2 v 1 h 1 v 1 h 2 v 1 h 1 v 1 h 2 v 1 h 1 v 1 h 2 v 1 h 1 v 1 h 2 v 1 h 1 v 1 h 2 v 1 h 2 v 1 h 1 v 1 h 2 v 1 h 2 v 1 h 1 v 1 h 2 v 1 h 1 v 1 h 2 v 1 h 2 v 1 h 1 v 1 h 2 v 1 h 2 v 1 h 1 v 1 h 2 v 1 h 1 v 1 h 2 v 1 h 2 v 1 h 2 v 1 h 2 v 1 h 1 v 1 h 2 v 1 h 2 v 1 h 2 v 1 h 1 v 1 h 2 v 1 h 2 v 1 h 2 v 1 h 2 v 1 h 1 v 1 h 2 v 1 h 2 v 1 h 2 v 1 h 2 v 1 h 2 v 1 h 2 v 1 h 2 v 1 h 2 v 1 h 2 v 1 h 2 v 1 h 2 v 1 h 2 v 1 h 2 v 1 h 2 v 1 h 2 v 1 h 2 v 1 h 3 v 1 h 2 v 1 h 2 v 1 h 2 v 1 h 3 v 1 h 2 v 1 h 2 v 1 h 2 v 1 h 3 v 1 h 2 v 1 h 2 v 1 h 3 v 1 h 2 v 1 h 3 v 1 h 3 v 1 h 2 v 1 h 3 v 1 h 3 v 1 h 2 v 1 h 3 v 1 h 3 v 1 h 2 v 1 h 4 v 1 h 3 v 1 h 3 v 1 h 3 v 1 h 4 v 1 h 3 v 1 h 3 v 1 h 3 v 1 h 4 v 1 h 4 v 1 h 4 v 1 h 4 v 1 h 4 v 1 h 5 v 1 h 4 v 1 h 4 v 1 h 6 v 1 h 6 v 1 h 6 v 1 h 6 v 1 h 6 v 1 h 9 v 1 h 11 v 1 h 11 v 1 h 59 v -1 h 13 v -1 h 11 v -1 h 8 v -1 h 7 v -1 h 6 v -1 h 7 v -1 h 6 v -1 h 7 v -1 h 6 v -1 h 6 v -1 h 4 v -1 h 5 v -1 h 5 v -1 h 4 v -1 h 5 v -1 h 4 v -1 h 5 v -1 h 4 v -1 h 5 v -1 h 5 v -1 h 4 v -1 h 5 v -1 h 4 v -1 h 4 v -1 h 3 v -1 h 4 v -1 h 4 v -1 h 3 v -1 h 4 v -1 h 3 v -1 h 4 v -1 h 4 v -1 h 3 v -1 h 4 v -1 h 3 v -1 h 4 v -1 h 4 v -1 h 3 v -1 h 4 v -1 h 3 v -1 h 3 v -1 h 4 v -1 h 3 v -1 h 3 v -1 h 3 v -1 h 3 v -1 h 3 v -1 h 4 v -1 h 3 v -1 h 3 v -1 h 3 v -1 h 3 v -1 h 4 v -1 h 3 v -1 h 3 v -1 h 3 v -1 h 3 v -1 h 4 v -1 h 3 v -1 h 3 v -1 h 3 v -1 h 3 v -1 h 3 v -1 h 3 v -1 h 3 v -1 h 3 v -1 h 3 v -1 h 3 v -1 h 3 v -1 h 3 v -1 h 4 v -1 h 3 v -1 h 3 v -1 h 3 v -1 h 3 v -1 h 3 v -1 h 3 v -1 h 3 v -1 h 3 v -1 h 3 v -1 h 4 v -1 h 3 v -1 h 3 v -1 h 3 v -1 h 3 v -1 h 4 v -1 h 3 v -1 h 3 v -1 h 3 v -1 h 3 v -1 h 4 v -1 h 3 v -1 h 3 v -1 h 3 v -1 h 3 v -1 h 4 v -1 h 3 v -1 h 4 v -1 h 3 v -1 h 4 v -1 h 4 v -1 h 3 v -1 h 4 v -1 h 3 v -1 h 4 v -1 h 4 v -1 h 3 v -1 h 4 v -1 h 4 v -1 h 3 v -1 h 4 v -1 h 3 v -1 h 4 v -1 h 4 v -1 h 5 v -1 h 4 v -1 h 4 v -1 h 5 v -1 h 4 v -1 h 5 v -1 h 4 v -1 h 4 v -1 h 5 v -1 h 5 v -1 h 5 v -1 h 6 v -1 h 6 v -1 h 5 v -1 h 7 v -1 h 7 v -1 h 8 v -1 h 7 v -1 h 10 v -1 h 11 v -1 h 10 v -1 h 13 v -1 h 21 v -1 h 76 v 1 h 23 v 1 h 18 v 1 h 15 v 1 h 13 v 1 h 13 v 1 h 12 v 1 h 11 v 1 h 12 v 1 h 10 v 1 h 8 v 1 h 7 v 1 h 5 v 1 h 6 v 1 h 5 v 1 h 5 v 1 h 4 v 1 h 5 v 1 h 4 v 1 h 4 v 1 h 5 v 1 h 4 v 1 h 4 v 1 h 4 v 1 h 4 v 1 h 4 v 1 h 3 v 1 h 4 v 1 h 4 v 1 h 4 v 1 h 4 v 1 h 3 v 1 h 4 v 1 h 4 v 1 h 4 v 1 h 3 v 1 h 4 v 1 h 4 v 1 h 4 v 1 h 3 v 1 h 4 v 1 h 4 v 1 h 4 v 1 h 3 v 1 h 4 v 1 h 4 v 1 h 4 v 1 h 4 v 1 h 4 v 1 h 3 v 1 h 4 v 1 h 4 v 1 h 4 v 1 h 4 v 1 h 4 v 1 h 5 v 1 h 4 v 1 h 4 v 1 h 5 v 1 h 4 v 1 h 5 v 1 h 5 v 1 h 5 v 1 h 4 v 1 h 6 v 1 h 6 v 1 h 6 v 1 h 5 v 1 h 8 v 1 h 9 v 1 h 2 V 524"
             style="fill:url(#linearGradient982);fill-opacity:1;fill-rule:nonzero;stroke:none"
             id="path984" /></g></g></g></g></svg>
